<svg xmlns="http://www.w3.org/2000/svg" width="106" height="106"><defs><filter id="a" x="0" y="0" width="106" height="106" filterUnits="userSpaceOnUse"><feOffset/><feGaussianBlur stdDeviation="7.5" result="blur"/><feFlood flood-opacity=".161"/><feComposite operator="in" in2="blur"/><feComposite in="SourceGraphic"/></filter></defs><g data-name="Group 307"><g data-name="Group 893"><g filter="url(#a)"><path data-name="Path 620" d="M53 22.5A30.5 30.5 0 1122.5 53 30.5 30.5 0 0153 22.5z" fill="#fff"/></g><g data-name="Icon ionic-ios-cart" fill="#78c741"><path data-name="Path 621" d="M47.438 67.82a1.688 1.688 0 11-1.687-1.688 1.688 1.688 0 011.688 1.688z"/><path data-name="Path 622" d="M63.223 67.82a1.687 1.687 0 11-1.687-1.688 1.687 1.687 0 011.687 1.688z"/><path data-name="Path 623" d="M67.111 47.307a.413.413 0 00-.366-.3l-22.9-2.215a.7.7 0 01-.527-.33 7.16 7.16 0 00-.858-1.308c-.541-.661-1.561-.64-3.431-.654a1.024 1.024 0 00-1.146.991 1 1 0 001.1.991 9.342 9.342 0 011.828.134c.33.1.6.64.7 1.111a.026.026 0 00.007.021c.014.084.141.717.141.724l2.804 14.879a5.468 5.468 0 001.02 2.51A2.806 2.806 0 0047.8 65h16.632a1 1 0 001.013-.942.98.98 0 00-.984-1.027H47.782a.817.817 0 01-.584-.2 3.155 3.155 0 01-.808-1.824l-.3-1.666a.039.039 0 01.028-.042l19.526-3.3a.411.411 0 00.345-.366l1.125-8.142a.4.4 0 00-.003-.184z"/></g></g></g></svg>