<svg xmlns="http://www.w3.org/2000/svg" width="146" height="146"><defs><filter id="a" x="0" y="0" width="146" height="146" filterUnits="userSpaceOnUse"><feOffset/><feGaussianBlur stdDeviation="7.5" result="blur"/><feFlood flood-opacity=".161"/><feComposite operator="in" in2="blur"/><feComposite in="SourceGraphic"/></filter></defs><g data-name="Group 300"><g filter="url(#a)"><path data-name="Path 612" d="M73 22.5A50.5 50.5 0 1122.5 73 50.5 50.5 0 0173 22.5z" fill="#fff"/></g><path data-name="Icon awesome-phone" d="M89.793 57.23l-7.312-1.688a1.7 1.7 0 00-1.934.977l-3.375 7.876a1.683 1.683 0 00.485 1.969l4.261 3.488A26.059 26.059 0 0169.459 82.31l-3.488-4.261a1.686 1.686 0 00-1.97-.485l-7.873 3.375a1.708 1.708 0 00-.985 1.941l1.688 7.312a1.687 1.687 0 001.645 1.308 32.621 32.621 0 0032.625-32.625 1.685 1.685 0 00-1.308-1.645z" fill="#80c750"/></g></svg>