<svg id="CostIcon" xmlns="http://www.w3.org/2000/svg" width="497" height="497" viewBox="0 0 497 497">
  <path id="Ellipse_11" data-name="Ellipse 11" d="M294.536,49.138c137.243,0,248.5,111.257,248.5,248.5s-111.257,248.5-248.5,248.5-248.5-111.257-248.5-248.5S157.293,49.138,294.536,49.138Z" transform="translate(-46.036 -49.138)" fill="#72cb34"/>
  <g id="Group_845" data-name="Group 845" transform="translate(-46.036 -49.138)">
    <g id="Group_841" data-name="Group 841">
      <path id="Path_1926" data-name="Path 1926" d="M171.036,254.213v54.709l54.157,16.026v-55.63Z" fill="none" stroke="#fff" stroke-linecap="round" stroke-linejoin="round" stroke-width="4"/>
      <path id="Path_1927" data-name="Path 1927" d="M171.036,254.213l34.262-8.842,52.5,12.71,32.6-3.868v6.447l-65.209,8.658" fill="none" stroke="#fff" stroke-linecap="round" stroke-linejoin="round" stroke-width="4"/>
      <path id="Path_1928" data-name="Path 1928" d="M225.193,324.948,290.4,314.264V233.4l69.262-9.21V207.056L257.429,222.529l.368,35.552" fill="none" stroke="#fff" stroke-linecap="round" stroke-linejoin="round" stroke-width="4"/>
      <path id="Path_1929" data-name="Path 1929" d="M205.3,245.371V212.214l52.131,10.316" fill="none" stroke="#fff" stroke-linecap="round" stroke-linejoin="round" stroke-width="4"/>
      <path id="Path_1930" data-name="Path 1930" d="M205.3,212.214l27.447-5.158,54.926,10.9V163.767l-54.742-5.342,55.672-6.631,52.641,6.816v51.234" fill="none" stroke="#fff" stroke-linecap="round" stroke-linejoin="round" stroke-width="4"/>
      <path id="Path_1931" data-name="Path 1931" d="M159.293,158.61l73.637-.184-.184,48.631" fill="none" stroke="#fff" stroke-linecap="round" stroke-linejoin="round" stroke-width="4"/>
      <line id="Line_38" data-name="Line 38" y1="5.158" x2="53.572" transform="translate(287.671 158.61)" fill="none" stroke="#fff" stroke-linecap="round" stroke-linejoin="round" stroke-width="4"/>
      <path id="Path_1932" data-name="Path 1932" d="M474.011,207.732l-114.348-.676-18.421-2.21" fill="none" stroke="#fff" stroke-linecap="round" stroke-linejoin="round" stroke-width="4"/>
      <path id="Path_1933" data-name="Path 1933" d="M290.4,233.4l54.157,11.973,60.788-10.316-45.683-10.868" fill="none" stroke="#fff" stroke-linecap="round" stroke-linejoin="round" stroke-width="4"/>
      <path id="Path_1934" data-name="Path 1934" d="M290.4,314.264v6.079L344.19,338.58V245.371" fill="none" stroke="#fff" stroke-linecap="round" stroke-linejoin="round" stroke-width="4"/>
      <path id="Path_1935" data-name="Path 1935" d="M344.19,338.58l61.157-12.894v-90.63" fill="none" stroke="#fff" stroke-linecap="round" stroke-linejoin="round" stroke-width="4"/>
      <line id="Line_39" data-name="Line 39" x2="4.974" y2="1.75" transform="translate(210.282 310.902)" fill="none" stroke="#fff" stroke-linecap="round" stroke-linejoin="round" stroke-width="4"/>
      <line id="Line_40" data-name="Line 40" x2="5.092" y2="1.369" transform="translate(242.353 245.562)" fill="none" stroke="#fff" stroke-linecap="round" stroke-linejoin="round" stroke-width="4"/>
      <line id="Line_41" data-name="Line 41" x2="5.092" y2="1.369" transform="translate(270.725 204.161)" fill="none" stroke="#fff" stroke-linecap="round" stroke-linejoin="round" stroke-width="4"/>
      <line id="Line_42" data-name="Line 42" x2="5.092" y2="1.369" transform="translate(329.566 324.264)" fill="none" stroke="#fff" stroke-linecap="round" stroke-linejoin="round" stroke-width="4"/>
    </g>
    <line id="Line_43" data-name="Line 43" x2="124.352" transform="translate(405.347 309.133)" fill="none" stroke="#fff" stroke-linecap="round" stroke-linejoin="round" stroke-width="4"/>
    <line id="Line_44" data-name="Line 44" x2="110.462" transform="translate(60.574 309.133)" fill="none" stroke="#fff" stroke-linecap="round" stroke-linejoin="round" stroke-width="4"/>
    <g id="Group_842" data-name="Group 842">
      <path id="Path_1936" data-name="Path 1936" d="M275.554,292.189a13.7,13.7,0,0,1-10.8,13.531,14.3,14.3,0,0,1-15.429-6.639,14.055,14.055,0,0,1,24.138-14.4A14.2,14.2,0,0,1,275.554,292.189Zm-5.14,9.328-.263-.136a4.693,4.693,0,0,1-1.63-1.36,5.532,5.532,0,0,1-.448-.7.513.513,0,0,1,.073-.6.539.539,0,0,1,.548-.188.642.642,0,0,1,.423.359,3.766,3.766,0,0,0,1.892,1.647c.246.1.278.1.445-.106a12.577,12.577,0,0,0,2.973-8.007,13.152,13.152,0,0,0-.657-4.382,12.93,12.93,0,0,0-25.047,6.223,12.489,12.489,0,0,0,2.367,5.412c.38.5.808.968,1.218,1.454.209-.141.383-.256.553-.374a29.89,29.89,0,0,0,6.583-6.107,18.665,18.665,0,0,0,1.585-2.389.555.555,0,0,1,.734-.241.566.566,0,0,1,.271.738,3.143,3.143,0,0,1-.186.354,23.129,23.129,0,0,1-3.348,4.344,32.592,32.592,0,0,1-5.141,4.331c-.053.037-.1.076-.168.123l1.32.958c.053-.038.1-.07.146-.106,1.748-1.391,3.457-2.827,5.089-4.355a24.06,24.06,0,0,0,2.683-2.845,4.88,4.88,0,0,0,1.018-2.109,2.466,2.466,0,0,0-.642-2.3,1.452,1.452,0,0,0-1.176-.457,2.452,2.452,0,0,0-1.636.79,9.726,9.726,0,0,0-1.386,1.825,16,16,0,0,1-1.481,2.123,19.779,19.779,0,0,1-4.981,4.033.55.55,0,0,1-.774-.184.561.561,0,0,1,.205-.783c.5-.329,1.014-.653,1.512-.992a14.559,14.559,0,0,0,4.629-4.9,8.992,8.992,0,0,1,1.278-1.712,3.839,3.839,0,0,1,1.818-1.2,2.683,2.683,0,0,1,2.94.809,3.579,3.579,0,0,1,.812,3.119,5.8,5.8,0,0,1-1.315,2.708c-.623.74-1.272,1.463-1.958,2.144a71.252,71.252,0,0,1-5.521,4.837c-.06.049-.118.1-.191.162l1.248.554c.341-.421.664-.838,1.006-1.239a4.6,4.6,0,0,1,1.724-1.322,1.984,1.984,0,0,1,2.355.534,3.645,3.645,0,0,1,.714,1.166c.185.493.339,1,.494,1.5.042.134.1.172.232.146.4-.078.812-.136,1.214-.22.3-.061.584-.15.9-.232-.089-.083-.151-.136-.206-.194a8.37,8.37,0,0,1-2.385-6.154.556.556,0,0,1,.585-.594.57.57,0,0,1,.54.622,11.368,11.368,0,0,0,.1,1.419,7.076,7.076,0,0,0,2.418,4.344.258.258,0,0,0,.312.055,13.245,13.245,0,0,0,2.109-1.173c.04-.027.074-.061.119-.1-.042-.03-.065-.047-.09-.063a6.834,6.834,0,0,1-2.62-3.08,11.3,11.3,0,0,1-.876-4.647,20.294,20.294,0,0,1,.239-2.3,3.278,3.278,0,0,0-1.291-3.127,5.4,5.4,0,0,0-2.2-.988,3.728,3.728,0,0,0-3.073.629,5.884,5.884,0,0,0-1.48,1.53,5.727,5.727,0,0,0-.485.823,8.839,8.839,0,0,1-2.086,2.778,14.384,14.384,0,0,1-2.968,2.113.55.55,0,0,1-.769-.206.561.561,0,0,1,.188-.748c.086-.059.181-.1.268-.162.547-.36,1.114-.693,1.634-1.089a8.872,8.872,0,0,0,2.763-3.257,6.983,6.983,0,0,1,2.052-2.533,4.836,4.836,0,0,1,2.667-1.083,6.075,6.075,0,0,1,3.922,1.118,4.332,4.332,0,0,1,2,4.121c-.026.375-.089.748-.145,1.12a10.683,10.683,0,0,0,.049,3.291,7.765,7.765,0,0,0,1.1,3.033,5.4,5.4,0,0,0,2.018,1.873.318.318,0,0,0,.25.019A1.551,1.551,0,0,0,270.414,301.517ZM262,304.9a.638.638,0,0,0-.014-.1c-.119-.369-.232-.741-.363-1.106a2.648,2.648,0,0,0-.627-1.012.813.813,0,0,0-.911-.2,2.162,2.162,0,0,0-.362.167A6.158,6.158,0,0,0,258,304.39,12.13,12.13,0,0,0,262,304.9Z" fill="#fff"/>
      <path id="Path_1937" data-name="Path 1937" d="M261.668,284.782a7.351,7.351,0,0,1,7.366,5.872c.037.146.068.294.093.443a.573.573,0,1,1-1.122.2,6.794,6.794,0,0,0-2.037-3.795,5.857,5.857,0,0,0-3.322-1.5,6.88,6.88,0,0,0-6.675,2.885,7.022,7.022,0,0,0-.635.995,7.287,7.287,0,0,1-3.185,3.036.561.561,0,0,1-.8-.211.576.576,0,0,1,.254-.787c.479-.314.973-.61,1.42-.965a5.245,5.245,0,0,0,1.363-1.72A8.333,8.333,0,0,1,261.668,284.782Z" fill="#fff"/>
      <path id="Path_1938" data-name="Path 1938" d="M261.8,282.395a10.152,10.152,0,0,1,5.9,1.9,9.016,9.016,0,0,1,2.638,2.964,1.514,1.514,0,0,1,.145.333.532.532,0,0,1-.312.658.57.57,0,0,1-.712-.232c-.216-.344-.413-.7-.65-1.028a8.173,8.173,0,0,0-4.889-3.186,8.832,8.832,0,0,0-8.072,1.9,13.4,13.4,0,0,0-2.929,3.395.577.577,0,0,1-.658.335.549.549,0,0,1-.371-.814,13.2,13.2,0,0,1,5.95-5.465A9.572,9.572,0,0,1,261.8,282.395Z" fill="#fff"/>
      <path id="Path_1939" data-name="Path 1939" d="M261.688,279.923a11.523,11.523,0,0,1,7.254,2.625c.184.151.356.316.524.483a.573.573,0,1,1-.8.808,9.9,9.9,0,0,0-5.174-2.606,9.775,9.775,0,0,0-6.46.984,13.96,13.96,0,0,0-3.156,2.2.992.992,0,0,1-.314.209.562.562,0,0,1-.559-.936c.285-.272.573-.542.882-.787a13.555,13.555,0,0,1,5.474-2.735A9.82,9.82,0,0,1,261.688,279.923Z" fill="#fff"/>
      <path id="Path_1940" data-name="Path 1940" d="M271.8,292.958a15.8,15.8,0,0,1-.915,4.908.566.566,0,1,1-1.07-.368,16.3,16.3,0,0,0,.672-2.678,10.032,10.032,0,0,0-.227-4.512c-.054-.177-.126-.349-.2-.52a.577.577,0,0,1,.271-.794.569.569,0,0,1,.768.333,6.8,6.8,0,0,1,.548,2.005C271.715,291.871,271.747,292.416,271.8,292.958Z" fill="#fff"/>
      <path id="Path_1941" data-name="Path 1941" d="M269.407,294.338a5.877,5.877,0,0,1-.83,2.946.566.566,0,0,1-.723.282.576.576,0,0,1-.269-.843,10.173,10.173,0,0,0,.506-1.179,3.863,3.863,0,0,0,.065-2.079,2.144,2.144,0,0,1-.046-.239.573.573,0,0,1,.439-.64.545.545,0,0,1,.655.382,6.33,6.33,0,0,1,.171.832A5.074,5.074,0,0,1,269.407,294.338Z" fill="#fff"/>
    </g>
    <g id="Group_843" data-name="Group 843">
      <path id="Path_1942" data-name="Path 1942" d="M390.27,286.141a13.7,13.7,0,0,1-10.8,13.531,14.3,14.3,0,0,1-15.429-6.639,14.055,14.055,0,0,1,24.138-14.4A14.2,14.2,0,0,1,390.27,286.141Zm-5.14,9.328-.263-.136a4.71,4.71,0,0,1-1.63-1.359,5.612,5.612,0,0,1-.448-.7.513.513,0,0,1,.074-.6.537.537,0,0,1,.547-.188.64.64,0,0,1,.423.359,3.765,3.765,0,0,0,1.892,1.647c.246.1.278.1.445-.106a12.574,12.574,0,0,0,2.973-8.006,13.154,13.154,0,0,0-.657-4.383,12.93,12.93,0,0,0-25.047,6.223,12.491,12.491,0,0,0,2.368,5.412c.379.5.807.968,1.217,1.455.21-.142.383-.257.554-.375a29.886,29.886,0,0,0,6.582-6.107,18.668,18.668,0,0,0,1.585-2.389.555.555,0,0,1,.734-.241.566.566,0,0,1,.271.738,2.981,2.981,0,0,1-.186.354,23.065,23.065,0,0,1-3.348,4.344,32.6,32.6,0,0,1-5.141,4.331c-.053.037-.105.077-.168.123l1.32.959c.054-.039.1-.071.146-.107,1.748-1.391,3.458-2.827,5.089-4.355a24.151,24.151,0,0,0,2.684-2.845,4.9,4.9,0,0,0,1.018-2.108,2.473,2.473,0,0,0-.642-2.3,1.459,1.459,0,0,0-1.177-.457,2.454,2.454,0,0,0-1.636.791,9.647,9.647,0,0,0-1.385,1.825,16.06,16.06,0,0,1-1.482,2.122,19.774,19.774,0,0,1-4.98,4.033.551.551,0,0,1-.775-.183.562.562,0,0,1,.2-.784c.506-.328,1.014-.653,1.512-.992a14.562,14.562,0,0,0,4.63-4.9,8.986,8.986,0,0,1,1.277-1.712,3.829,3.829,0,0,1,1.818-1.2,2.68,2.68,0,0,1,2.94.808,3.58,3.58,0,0,1,.812,3.119,5.791,5.791,0,0,1-1.315,2.708c-.623.74-1.271,1.463-1.958,2.144a71.647,71.647,0,0,1-5.52,4.838c-.061.048-.118.1-.192.162l1.249.553c.34-.421.664-.838,1.006-1.239a4.6,4.6,0,0,1,1.723-1.322,1.984,1.984,0,0,1,2.355.534,3.644,3.644,0,0,1,.714,1.166c.185.493.34,1,.5,1.5.041.134.1.172.232.146.4-.078.811-.136,1.214-.219.294-.061.583-.15.9-.233-.089-.083-.15-.136-.206-.194a8.369,8.369,0,0,1-2.385-6.153.557.557,0,0,1,.586-.595.57.57,0,0,1,.539.622,11.557,11.557,0,0,0,.1,1.419,7.083,7.083,0,0,0,2.418,4.345.258.258,0,0,0,.312.054,13.243,13.243,0,0,0,2.109-1.173,1.526,1.526,0,0,0,.119-.1c-.042-.03-.065-.047-.089-.063a6.83,6.83,0,0,1-2.621-3.08,11.3,11.3,0,0,1-.876-4.647,20.3,20.3,0,0,1,.239-2.3,3.278,3.278,0,0,0-1.291-3.127,5.38,5.38,0,0,0-2.2-.987,3.721,3.721,0,0,0-3.072.628,5.9,5.9,0,0,0-1.481,1.53,5.785,5.785,0,0,0-.485.823,8.827,8.827,0,0,1-2.086,2.778,14.345,14.345,0,0,1-2.968,2.113.55.55,0,0,1-.769-.206.561.561,0,0,1,.188-.748c.086-.059.181-.1.268-.162.547-.36,1.114-.693,1.634-1.089a8.876,8.876,0,0,0,2.763-3.256,6.971,6.971,0,0,1,2.053-2.534,4.83,4.83,0,0,1,2.666-1.083,6.079,6.079,0,0,1,3.922,1.118,4.331,4.331,0,0,1,2,4.122c-.025.374-.089.747-.144,1.119a10.652,10.652,0,0,0,.048,3.291,7.767,7.767,0,0,0,1.1,3.033,5.392,5.392,0,0,0,2.017,1.873.318.318,0,0,0,.25.019A1.552,1.552,0,0,0,385.13,295.469Zm-8.414,3.383a.674.674,0,0,0-.014-.1c-.119-.369-.231-.741-.363-1.106a2.637,2.637,0,0,0-.627-1.011.812.812,0,0,0-.911-.2,2.16,2.16,0,0,0-.362.167,6.171,6.171,0,0,0-1.727,1.741A12.078,12.078,0,0,0,376.716,298.852Z" fill="#fff"/>
      <path id="Path_1943" data-name="Path 1943" d="M376.384,278.734a7.352,7.352,0,0,1,7.367,5.873c.036.146.067.294.092.442a.573.573,0,1,1-1.122.2,6.8,6.8,0,0,0-2.036-3.795,5.858,5.858,0,0,0-3.322-1.5,6.883,6.883,0,0,0-6.676,2.885,7.022,7.022,0,0,0-.635.995,7.282,7.282,0,0,1-3.185,3.036.561.561,0,0,1-.8-.211.577.577,0,0,1,.254-.787c.479-.313.973-.61,1.42-.965a5.235,5.235,0,0,0,1.363-1.72A8.333,8.333,0,0,1,376.384,278.734Z" fill="#fff"/>
      <path id="Path_1944" data-name="Path 1944" d="M376.516,276.348a10.144,10.144,0,0,1,5.9,1.9,9.03,9.03,0,0,1,2.639,2.964,1.533,1.533,0,0,1,.144.333.531.531,0,0,1-.311.658.57.57,0,0,1-.713-.232c-.215-.343-.413-.7-.65-1.028a8.173,8.173,0,0,0-4.889-3.186,8.835,8.835,0,0,0-8.072,1.9,13.424,13.424,0,0,0-2.929,3.395.576.576,0,0,1-.658.335.549.549,0,0,1-.37-.814,13.2,13.2,0,0,1,5.949-5.465A9.559,9.559,0,0,1,376.516,276.348Z" fill="#fff"/>
      <path id="Path_1945" data-name="Path 1945" d="M376.4,273.875a11.523,11.523,0,0,1,7.254,2.625c.184.151.356.316.525.484a.572.572,0,0,1,.066.87.577.577,0,0,1-.862-.063,9.912,9.912,0,0,0-5.174-2.606,9.775,9.775,0,0,0-6.46.984,13.961,13.961,0,0,0-3.156,2.2.991.991,0,0,1-.314.209.561.561,0,0,1-.559-.935c.285-.273.574-.543.882-.788a13.555,13.555,0,0,1,5.474-2.735A9.873,9.873,0,0,1,376.4,273.875Z" fill="#fff"/>
      <path id="Path_1946" data-name="Path 1946" d="M386.512,286.91a15.844,15.844,0,0,1-.916,4.909.566.566,0,1,1-1.07-.369,16.25,16.25,0,0,0,.672-2.678,10.033,10.033,0,0,0-.227-4.512c-.054-.177-.126-.349-.2-.52a.577.577,0,0,1,.271-.794.57.57,0,0,1,.768.333,6.772,6.772,0,0,1,.548,2.005C386.432,285.823,386.463,286.368,386.512,286.91Z" fill="#fff"/>
      <path id="Path_1947" data-name="Path 1947" d="M384.123,288.29a5.867,5.867,0,0,1-.83,2.946.566.566,0,0,1-.723.282.576.576,0,0,1-.269-.843,10.164,10.164,0,0,0,.506-1.178,3.863,3.863,0,0,0,.065-2.079,2.206,2.206,0,0,1-.046-.24.574.574,0,0,1,.44-.64.543.543,0,0,1,.654.382,6.534,6.534,0,0,1,.172.832A5.353,5.353,0,0,1,384.123,288.29Z" fill="#fff"/>
    </g>
    <g id="Group_844" data-name="Group 844">
      <path id="Path_1948" data-name="Path 1948" d="M328.54,188.4a13.7,13.7,0,0,1-10.8,13.531,14.3,14.3,0,0,1-15.428-6.639,13.967,13.967,0,0,1-1.938-7.424,14.11,14.11,0,0,1,10.148-13.215,13.963,13.963,0,0,1,15.927,6.235A14.192,14.192,0,0,1,328.54,188.4ZM323.4,197.73l-.264-.136a4.71,4.71,0,0,1-1.63-1.359,5.607,5.607,0,0,1-.447-.7.511.511,0,0,1,.073-.6.537.537,0,0,1,.547-.188.64.64,0,0,1,.423.359,3.766,3.766,0,0,0,1.892,1.647c.247.1.278.1.445-.106a12.569,12.569,0,0,0,2.973-8.006,13.155,13.155,0,0,0-.657-4.383,12.93,12.93,0,0,0-25.047,6.223,12.5,12.5,0,0,0,2.368,5.412c.379.5.808.968,1.217,1.455.21-.142.383-.257.554-.375a29.891,29.891,0,0,0,6.583-6.107,18.66,18.66,0,0,0,1.584-2.389.556.556,0,0,1,.735-.241.565.565,0,0,1,.27.738,2.985,2.985,0,0,1-.186.354,23.061,23.061,0,0,1-3.347,4.344A32.638,32.638,0,0,1,306.346,198c-.054.037-.106.077-.169.123l1.32.959c.054-.039.1-.071.147-.107,1.748-1.391,3.457-2.827,5.088-4.355a24.068,24.068,0,0,0,2.684-2.845,4.876,4.876,0,0,0,1.018-2.108,2.47,2.47,0,0,0-.642-2.3,1.458,1.458,0,0,0-1.177-.457,2.454,2.454,0,0,0-1.636.791,9.646,9.646,0,0,0-1.385,1.825,16.058,16.058,0,0,1-1.482,2.122,19.774,19.774,0,0,1-4.98,4.033.551.551,0,0,1-.775-.183.563.563,0,0,1,.205-.784c.506-.328,1.014-.653,1.512-.992a14.553,14.553,0,0,0,4.63-4.9,8.986,8.986,0,0,1,1.277-1.712,3.833,3.833,0,0,1,1.819-1.2,2.679,2.679,0,0,1,2.939.808,3.577,3.577,0,0,1,.812,3.119,5.781,5.781,0,0,1-1.315,2.708c-.622.74-1.271,1.463-1.958,2.144a71.28,71.28,0,0,1-5.52,4.838c-.06.048-.118.1-.192.162l1.249.553c.341-.421.664-.838,1.006-1.239a4.6,4.6,0,0,1,1.723-1.322,1.984,1.984,0,0,1,2.355.534,3.665,3.665,0,0,1,.715,1.166c.184.493.339,1,.494,1.5.041.134.1.172.232.146.4-.078.811-.136,1.214-.219.294-.061.583-.15.9-.233-.089-.083-.15-.136-.206-.194a8.368,8.368,0,0,1-2.384-6.153.556.556,0,0,1,.585-.6.571.571,0,0,1,.54.622,11.368,11.368,0,0,0,.1,1.419,7.074,7.074,0,0,0,2.418,4.345.257.257,0,0,0,.311.054,13.3,13.3,0,0,0,2.11-1.173c.039-.027.074-.061.118-.1l-.089-.063a6.822,6.822,0,0,1-2.62-3.08,11.271,11.271,0,0,1-.876-4.647,20.291,20.291,0,0,1,.238-2.3,3.276,3.276,0,0,0-1.291-3.127,5.374,5.374,0,0,0-2.2-.987,3.722,3.722,0,0,0-3.072.628,5.9,5.9,0,0,0-1.48,1.53,5.787,5.787,0,0,0-.486.823,8.825,8.825,0,0,1-2.085,2.778,14.352,14.352,0,0,1-2.969,2.113.55.55,0,0,1-.769-.206.561.561,0,0,1,.189-.748c.085-.059.181-.1.268-.162.546-.36,1.114-.693,1.633-1.089a8.867,8.867,0,0,0,2.763-3.256,6.981,6.981,0,0,1,2.053-2.534,4.836,4.836,0,0,1,2.667-1.083,6.078,6.078,0,0,1,3.921,1.118,4.333,4.333,0,0,1,2,4.122c-.026.374-.09.747-.145,1.119a10.622,10.622,0,0,0,.049,3.291,7.749,7.749,0,0,0,1.1,3.033,5.392,5.392,0,0,0,2.017,1.873.319.319,0,0,0,.25.019A1.554,1.554,0,0,0,323.4,197.73Zm-8.415,3.383a.561.561,0,0,0-.014-.1c-.119-.369-.231-.741-.363-1.106a2.637,2.637,0,0,0-.627-1.011.811.811,0,0,0-.91-.2,2.123,2.123,0,0,0-.362.167,6.162,6.162,0,0,0-1.728,1.741A12.078,12.078,0,0,0,314.986,201.113Z" fill="#fff"/>
      <path id="Path_1949" data-name="Path 1949" d="M314.654,180.995a7.351,7.351,0,0,1,7.367,5.873c.037.146.067.294.092.442a.572.572,0,1,1-1.121.2,6.8,6.8,0,0,0-2.037-3.795,5.855,5.855,0,0,0-3.322-1.5,6.884,6.884,0,0,0-6.676,2.885,7.022,7.022,0,0,0-.635,1,7.281,7.281,0,0,1-3.185,3.036.56.56,0,0,1-.8-.211.577.577,0,0,1,.253-.787c.48-.313.974-.61,1.421-.965a5.245,5.245,0,0,0,1.362-1.72A8.334,8.334,0,0,1,314.654,180.995Z" fill="#fff"/>
      <path id="Path_1950" data-name="Path 1950" d="M314.787,178.609a10.143,10.143,0,0,1,5.9,1.9,9.029,9.029,0,0,1,2.639,2.964,1.483,1.483,0,0,1,.144.333.53.53,0,0,1-.311.658.571.571,0,0,1-.713-.232c-.215-.343-.413-.7-.649-1.028a8.178,8.178,0,0,0-4.89-3.186,8.836,8.836,0,0,0-8.072,1.9,13.4,13.4,0,0,0-2.928,3.4.577.577,0,0,1-.659.335.549.549,0,0,1-.37-.814,13.2,13.2,0,0,1,5.949-5.465A9.563,9.563,0,0,1,314.787,178.609Z" fill="#fff"/>
      <path id="Path_1951" data-name="Path 1951" d="M314.675,176.136a11.525,11.525,0,0,1,7.254,2.625c.183.151.355.316.524.484a.572.572,0,0,1,.066.87.577.577,0,0,1-.862-.063,9.909,9.909,0,0,0-5.174-2.606,9.776,9.776,0,0,0-6.46.984,13.955,13.955,0,0,0-3.155,2.2,1,1,0,0,1-.314.209.561.561,0,0,1-.56-.935c.285-.273.574-.543.882-.788a13.558,13.558,0,0,1,5.475-2.735A9.861,9.861,0,0,1,314.675,176.136Z" fill="#fff"/>
      <path id="Path_1952" data-name="Path 1952" d="M324.782,189.171a15.845,15.845,0,0,1-.916,4.909.566.566,0,1,1-1.069-.369,16.342,16.342,0,0,0,.671-2.678,10.046,10.046,0,0,0-.226-4.512c-.054-.177-.127-.349-.2-.52a.57.57,0,1,1,1.039-.461,6.8,6.8,0,0,1,.547,2.005C324.7,188.084,324.733,188.629,324.782,189.171Z" fill="#fff"/>
      <path id="Path_1953" data-name="Path 1953" d="M322.394,190.551a5.868,5.868,0,0,1-.831,2.946.565.565,0,0,1-.723.282.576.576,0,0,1-.269-.843,10.348,10.348,0,0,0,.507-1.178,3.873,3.873,0,0,0,.064-2.079,1.991,1.991,0,0,1-.045-.24.573.573,0,0,1,.439-.64.545.545,0,0,1,.655.382,6.711,6.711,0,0,1,.171.832A5.355,5.355,0,0,1,322.394,190.551Z" fill="#fff"/>
    </g>
    <line id="Line_45" data-name="Line 45" y1="206.883" transform="translate(159.293 102.25)" fill="none" stroke="#fff" stroke-linecap="round" stroke-miterlimit="10" stroke-width="4"/>
    <line id="Line_46" data-name="Line 46" y1="94.045" transform="translate(312.984 60.906)" fill="none" stroke="#fff" stroke-linecap="round" stroke-miterlimit="10" stroke-width="4"/>
    <line id="Line_47" data-name="Line 47" y1="169.758" transform="translate(474.011 139.375)" fill="none" stroke="#fff" stroke-linecap="round" stroke-miterlimit="10" stroke-width="4"/>
    <line id="Line_48" data-name="Line 48" x2="82.688" transform="translate(76.605 246.212)" fill="none" stroke="#fff" stroke-linecap="round" stroke-miterlimit="10" stroke-width="4"/>
    <line id="Line_49" data-name="Line 49" x1="76.781" transform="translate(82.511 185.673)" fill="none" stroke="#fff" stroke-linecap="round" stroke-miterlimit="10" stroke-width="4"/>
    <line id="Line_50" data-name="Line 50" x2="46.006" transform="translate(159.293 228.792)" fill="none" stroke="#fff" stroke-linecap="round" stroke-linejoin="round" stroke-width="4"/>
    <line id="Line_51" data-name="Line 51" x1="136.817" transform="translate(176.168 90.438)" fill="none" stroke="#fff" stroke-linecap="round" stroke-linejoin="round" stroke-width="4"/>
    <line id="Line_52" data-name="Line 52" x2="68.665" transform="translate(405.347 276.348)" fill="none" stroke="#fff" stroke-linecap="round" stroke-linejoin="round" stroke-width="4"/>
    <line id="Line_53" data-name="Line 53" x2="68.665" transform="translate(405.347 243.039)" fill="none" stroke="#fff" stroke-linecap="round" stroke-linejoin="round" stroke-width="4"/>
    <line id="Line_54" data-name="Line 54" x1="132.768" transform="translate(341.243 172.594)" fill="none" stroke="#fff" stroke-linecap="round" stroke-linejoin="round" stroke-width="4"/>
    <line id="Line_55" data-name="Line 55" x2="149.215" transform="translate(312.984 139.251)" fill="none" stroke="#fff" stroke-linecap="round" stroke-linejoin="round" stroke-width="4"/>
    <line id="Line_56" data-name="Line 56" x2="123.058" transform="translate(312.984 107.248)" fill="none" stroke="#fff" stroke-linecap="round" stroke-linejoin="round" stroke-width="4"/>
    <line id="Line_57" data-name="Line 57" x2="63.732" transform="translate(312.984 75.563)" fill="none" stroke="#fff" stroke-linecap="round" stroke-linejoin="round" stroke-width="4"/>
    <path id="Path_1954" data-name="Path 1954" d="M90.105,421.985H429.293v70.336" fill="none" stroke="#fff" stroke-linecap="round" stroke-linejoin="round" stroke-width="4"/>
    <rect id="Rectangle_199" data-name="Rectangle 199" width="65.578" height="65.578" transform="translate(120.902 356.407)" fill="none" stroke="#fff" stroke-linecap="round" stroke-linejoin="round" stroke-width="4"/>
    <rect id="Rectangle_200" data-name="Rectangle 200" width="116.036" height="32.789" transform="translate(234.41 389.196)" fill="none" stroke="#fff" stroke-linecap="round" stroke-linejoin="round" stroke-width="4"/>
  </g>
</svg>
