<svg id="CreativityIcon" xmlns="http://www.w3.org/2000/svg" width="213.201" height="213.201" viewBox="0 0 213.201 213.201">
  <path id="Ellipse_11" data-name="Ellipse 11" d="M106.6,0A106.6,106.6,0,1,1,0,106.6,106.6,106.6,0,0,1,106.6,0Z" fill="#72cb34"/>
  <g id="Group_847" data-name="Group 847" transform="translate(5.437 38.414)">
    <path id="Path_1955" data-name="Path 1955" d="M140.409,57.346a11.812,11.812,0,0,0-7.674,11.031,11.68,11.68,0,0,0,1.355,5.38,9.416,9.416,0,0,0,0,17.613,11.679,11.679,0,0,0-1.355,5.378,11.81,11.81,0,0,0,7.674,11.032,9.327,9.327,0,0,0-.582,3.154,9.393,9.393,0,0,0,12.791,8.821,9.433,9.433,0,0,0,17.944-4.092v-66.2a9.433,9.433,0,0,0-17.944-4.092,9.37,9.37,0,0,0-12.209,11.975Zm8.875-7.882a4.733,4.733,0,0,1,4.728,4.728h4.728a9.366,9.366,0,0,0-2.18-5.965,4.717,4.717,0,0,1,9.272,1.236v66.2a4.717,4.717,0,0,1-9.272,1.236,9.364,9.364,0,0,0,2.18-5.965h-4.728a4.728,4.728,0,1,1-4.728-4.728v-4.728a9.366,9.366,0,0,0-6.028,2.233,7.087,7.087,0,1,1,8.392-6.961h4.728a11.834,11.834,0,0,0-11.821-11.821,11.7,11.7,0,0,0-7.092,2.427v-.062a4.728,4.728,0,1,1,0-9.457v-.061a11.694,11.694,0,0,0,7.092,2.425,11.834,11.834,0,0,0,11.821-11.821h-4.728a7.093,7.093,0,1,1-8.392-6.96,9.366,9.366,0,0,0,6.028,2.232V58.921a4.728,4.728,0,0,1,0-9.457Z" transform="translate(-67.628 -28.183)" fill="#fff"/>
    <path id="Path_1956" data-name="Path 1956" d="M309.281,44.735a9.4,9.4,0,0,0-3.333.636A9.434,9.434,0,0,0,288,49.464v66.2a9.434,9.434,0,0,0,17.945,4.092,9.392,9.392,0,0,0,12.789-8.821,9.292,9.292,0,0,0-.582-3.154,11.81,11.81,0,0,0,7.675-11.032,11.678,11.678,0,0,0-1.354-5.378,9.416,9.416,0,0,0,0-17.613,11.679,11.679,0,0,0,1.354-5.38,11.812,11.812,0,0,0-7.675-11.031,9.288,9.288,0,0,0,.582-3.154A9.467,9.467,0,0,0,309.281,44.735ZM321.1,68.377a7.093,7.093,0,1,1-14.185,0h-4.728A11.834,11.834,0,0,0,314.009,80.2a11.7,11.7,0,0,0,7.093-2.425v.061a4.728,4.728,0,1,1,0,9.457v.062a11.7,11.7,0,0,0-7.093-2.427,11.835,11.835,0,0,0-11.821,11.821h4.728a7.093,7.093,0,1,1,8.394,6.961,9.372,9.372,0,0,0-6.029-2.233V106.2a4.728,4.728,0,1,1-4.728,4.728h-4.728A9.364,9.364,0,0,0,302,116.9a4.717,4.717,0,0,1-9.272-1.236v-66.2A4.717,4.717,0,0,1,302,48.227a9.365,9.365,0,0,0-2.18,5.965h4.728a4.728,4.728,0,1,1,4.728,4.728v4.728a9.373,9.373,0,0,0,6.029-2.232A7.093,7.093,0,0,1,321.1,68.377Z" transform="translate(-180.341 -28.183)" fill="#fff"/>
    <path id="Path_1957" data-name="Path 1957" d="M187.616,14.747A53.924,53.924,0,0,0,146.915.113l.293,4.718a49.643,49.643,0,0,1,30.577,90.942A29.228,29.228,0,0,0,167.1,108.756H133.573a29.709,29.709,0,0,0-10.736-13.083A49.426,49.426,0,0,1,100.766,52.8l-4.726-.147A54.121,54.121,0,0,0,120.211,99.6a24.908,24.908,0,0,1,8.178,9.153h-6.372v4.728h8.259a27.271,27.271,0,0,1,1.011,4.728h-4.541v4.728h4.728v7.093a2.363,2.363,0,0,0,2.364,2.364H136.2a14.185,14.185,0,0,0,28.37,0h2.364a2.363,2.363,0,0,0,2.364-2.364v-7.093h4.728v-4.728h-4.562a26.352,26.352,0,0,1,.95-4.728h8.34v-4.728h-6.475a24.377,24.377,0,0,1,8.116-9.04,54.368,54.368,0,0,0,7.217-84.969ZM150.387,141.855a9.466,9.466,0,0,1-9.457-9.457h18.914A9.466,9.466,0,0,1,150.387,141.855Zm14.185-14.185H136.2v-4.728h28.37Zm.169-9.457H136.013a32.242,32.242,0,0,0-.8-4.728h30.265A31.406,31.406,0,0,0,164.741,118.213Z" transform="translate(-45.089 0)" fill="#fff"/>
    <path id="Path_1958" data-name="Path 1958" d="M82.371,16.557a9.467,9.467,0,0,1,9.457,9.457,2.364,2.364,0,1,0,4.728,0,9.467,9.467,0,0,1,9.457-9.457,2.364,2.364,0,0,0,0-4.728,9.466,9.466,0,0,1-9.457-9.457,2.364,2.364,0,1,0-4.728,0,9.466,9.466,0,0,1-9.457,9.457,2.364,2.364,0,0,0,0,4.728ZM94.192,10.2a14.308,14.308,0,0,0,3.988,3.988,14.324,14.324,0,0,0-3.988,3.988A14.308,14.308,0,0,0,90.2,14.193,14.293,14.293,0,0,0,94.192,10.2Z" transform="translate(-33.814 -0.005)" fill="#fff"/>
    <path id="Path_1959" data-name="Path 1959" d="M58.014,96.555a2.364,2.364,0,1,0,0-4.728,9.466,9.466,0,0,1-9.457-9.457,2.364,2.364,0,0,0-4.728,0,9.466,9.466,0,0,1-9.457,9.457,2.364,2.364,0,1,0,0,4.728,9.467,9.467,0,0,1,9.457,9.457,2.364,2.364,0,0,0,4.728,0A9.467,9.467,0,0,1,58.014,96.555ZM46.193,98.18A14.312,14.312,0,0,0,42.2,94.191,14.319,14.319,0,0,0,46.193,90.2a14.339,14.339,0,0,0,3.988,3.988A14.328,14.328,0,0,0,46.193,98.18Z" transform="translate(0 -56.361)" fill="#fff"/>
  </g>
</svg>
