<svg id="ExperienceIcon" xmlns="http://www.w3.org/2000/svg" width="497" height="497" viewBox="0 0 497 497">
  <g id="Group_396" data-name="Group 396">
    <circle id="Ellipse_11" data-name="Ellipse 11" cx="248.5" cy="248.5" r="248.5" fill="#72cb34"/>
    <line id="Line_3" data-name="Line 3" x2="78.255" transform="translate(15.344 276.634)" fill="none" stroke="#fff" stroke-linecap="round" stroke-miterlimit="10" stroke-width="4"/>
    <line id="Line_4" data-name="Line 4" x2="74.08" transform="translate(410.389 276.634)" fill="none" stroke="#fff" stroke-linecap="round" stroke-miterlimit="10" stroke-width="4"/>
    <path id="Path_684" data-name="Path 684" d="M182.594,389.884l-112.125-.291v15.563" fill="none" stroke="#fff" stroke-linecap="round" stroke-linejoin="round" stroke-width="3"/>
    <path id="Path_685" data-name="Path 685" d="M321.049,389.884l105.295-.291v15.563" fill="none" stroke="#fff" stroke-linecap="round" stroke-linejoin="round" stroke-width="3"/>
    <path id="Path_686" data-name="Path 686" d="M202.09,11.4,194.8,22.645a6.4,6.4,0,0,0,4.937,10.472H303.25A6.4,6.4,0,0,0,308.531,23.1l-6.858-10.018" fill="none" stroke="#fff" stroke-linecap="round" stroke-linejoin="round" stroke-width="3"/>
    <path id="Path_687" data-name="Path 687" d="M269.639,33.117a18.145,18.145,0,0,1-36.29,0" fill="none" stroke="#fff" stroke-miterlimit="10" stroke-width="3"/>
  </g>
  <g id="Group_398" data-name="Group 398">
    <path id="Path_688" data-name="Path 688" d="M132.253,285.784V297.25a.884.884,0,1,1-1.768,0V285.784a.884.884,0,1,1,1.768,0Z" fill="#fff" stroke="#fff" stroke-miterlimit="10" stroke-width="2"/>
    <g id="Group_397" data-name="Group 397">
      <path id="Path_689" data-name="Path 689" d="M246.007,245.591V265.5l19.772-9.888v-19.9Zm18.564,9.28-17.356,8.676V246.34l17.356-8.675Z" fill="#fff" stroke="#fff" stroke-miterlimit="10" stroke-width="2"/>
      <path id="Path_690" data-name="Path 690" d="M177.967,244.673l-2.739,1.369a.885.885,0,0,1-1.184-.4.883.883,0,0,1,.395-1.184l2.731-1.366a.884.884,0,1,1,.8,1.579Z" fill="#fff" stroke="#fff" stroke-miterlimit="10" stroke-width="2"/>
      <path id="Path_691" data-name="Path 691" d="M191.2,238.055l-4.414,2.208a.832.832,0,0,1-.395.092.884.884,0,0,1-.4-1.675l4.411-2.207a.885.885,0,1,1,.793,1.582Z" fill="#fff" stroke="#fff" stroke-miterlimit="10" stroke-width="2"/>
      <path id="Path_692" data-name="Path 692" d="M202.758,232.28l-2.723,1.365a.9.9,0,0,1-1.2-.4.87.87,0,0,1-.053-.672.9.9,0,0,1,.447-.516l2.731-1.365a.885.885,0,1,1,.794,1.583Z" fill="#fff" stroke="#fff" stroke-miterlimit="10" stroke-width="2"/>
      <path id="Path_693" data-name="Path 693" d="M151.248,248.2H154.1l-3.738,6.468-3.734-6.468h2.852V205.6h-2.852l3.734-6.468L154.1,205.6h-2.852Z" fill="#fff" stroke="#fff" stroke-miterlimit="10" stroke-width="2"/>
      <path id="Path_694" data-name="Path 694" d="M201.561,291.084l1.277-2.546-32.33-16.163-1.273,2.546-4.112-6.231,7.455-.447-1.277,2.55,32.33,16.163,1.273-2.55,4.116,6.231Z" fill="#fff" stroke="#fff" stroke-miterlimit="10" stroke-width="2"/>
      <path id="Path_695" data-name="Path 695" d="M211.772,156.551a.885.885,0,0,1-.887.882H132.253V270.486a.884.884,0,1,1-1.768,0V156.551a.888.888,0,0,1,.882-.886h79.518A.889.889,0,0,1,211.772,156.551Z" fill="#fff" stroke="#fff" stroke-miterlimit="10" stroke-width="2"/>
      <path id="Path_696" data-name="Path 696" d="M309.068,282.622h0l-41.118-14.113,11.285-5.643a.879.879,0,0,0,.488-.789V216.2a.884.884,0,0,0-1.277-.793l-20.135,10.069V203.957a.891.891,0,0,0-.491-.789l-14.028-7.013,16.255-8.131h33.434a.884.884,0,1,0,0-1.769H259.834a.873.873,0,0,0-.4.1l-17.629,8.813-29.873-14.939a.871.871,0,0,0-.786,0l-45.887,22.942a.892.892,0,0,0-.492.789v45.884a.892.892,0,0,0,.492.789l3.907,1.953-2.083,1.338c-7.757,4.99-11.853,10.991-11.853,17.355,0,7.592,5.844,14.7,16.457,20.005,10.484,5.24,24.4,8.124,39.206,8.124,12.365,0,24.065-2,33.828-5.779,7.6-2.945,13.586-6.835,17.307-11.258l1.6-1.9,12.156,35.428a.9.9,0,0,0,.8.6h.032a.887.887,0,0,0,.814-.524l9.759-21.939,21.943-9.759a.884.884,0,0,0-.069-1.643Zm-31.117-64.991v43.9L265.6,267.7l-5.474-1.873A.88.88,0,0,0,259,266.946l1.188,3.464-26.353,13.179V239.683Zm-21.416,8.728-23.977,11.986a.878.878,0,0,0-.487.79v22.39l-19.647,9.823v-43.9l44.111-22.056Zm-45-44.353,43.906,21.951-43.906,21.955-43.9-21.955Zm-44.993,67.287v-43.9l44.111,22.056v43.9Zm96.169,30.135C255.476,290.653,234.653,298.2,210.9,298.2c-14.617,0-28.347-2.84-38.662-8-10.186-5.091-15.793-11.809-15.793-18.922,0-6.452,4.773-12.716,13.449-17.633l.652-.371,40.6,20.3a.926.926,0,0,0,.79,0l20.138-10.066v21.512a.877.877,0,0,0,.109.423l.169.314V286l.218-.113.426.02a.98.98,0,0,0,.359-.1L260.768,272.1l2.316,6.75Zm23.457,13.114a.885.885,0,0,0-.447.447l-8.99,20.2-15.47-45.1,45.1,15.474Z" fill="#fff" stroke="#fff" stroke-miterlimit="10" stroke-width="2"/>
      <path id="Path_697" data-name="Path 697" d="M308.774,118.961H113.017a.884.884,0,0,0-.886.882V315.605a.885.885,0,0,0,.886.882h149.87a.884.884,0,1,0,0-1.768H113.9V139.079H307.892V269.721a.885.885,0,0,0,1.769,0V119.843A.885.885,0,0,0,308.774,118.961Zm-.882,18.35H113.9V120.729H307.892Z" fill="#fff" stroke="#fff" stroke-miterlimit="10" stroke-width="2"/>
      <path id="Path_698" data-name="Path 698" d="M294.363,156.551a.882.882,0,0,1-.886.882H276.658a.884.884,0,0,1,0-1.768h16.819A.886.886,0,0,1,294.363,156.551Z" fill="#fff" stroke="#fff" stroke-miterlimit="10" stroke-width="2"/>
      <path id="Path_699" data-name="Path 699" d="M265.308,156.551a.885.885,0,0,1-.886.882H250.655a.884.884,0,0,1,0-1.768h13.767A.889.889,0,0,1,265.308,156.551Z" fill="#fff" stroke="#fff" stroke-miterlimit="10" stroke-width="2"/>
      <path id="Path_700" data-name="Path 700" d="M282.127,171.844a.884.884,0,0,1-.882.886h-30.59a.884.884,0,0,1,0-1.768h30.59A.882.882,0,0,1,282.127,171.844Z" fill="#fff" stroke="#fff" stroke-miterlimit="10" stroke-width="2"/>
    </g>
  </g>
  <g id="Group_400" data-name="Group 400">
    <g id="Rectangle_101" data-name="Rectangle 101" transform="translate(92.599 102.259)" fill="none" stroke="#fff" stroke-miterlimit="10" stroke-width="4">
      <rect width="317.79" height="259.905" rx="17.008" stroke="none"/>
      <rect x="2" y="2" width="313.79" height="255.905" rx="15.008" fill="none"/>
    </g>
    <line id="Line_5" data-name="Line 5" x2="316.79" transform="translate(93.599 331.009)" fill="none" stroke="#fff" stroke-miterlimit="10" stroke-width="4"/>
    <rect id="Rectangle_102" data-name="Rectangle 102" width="138.455" height="30" transform="translate(182.594 359.884)" fill="none" stroke="#fff" stroke-miterlimit="10" stroke-width="3"/>
    <g id="Group_399" data-name="Group 399">
      <path id="Path_701" data-name="Path 701" d="M254.409,345.744v.07a2.916,2.916,0,0,1-5.83.01v-.08a2.915,2.915,0,0,1,5.83,0Z" fill="#fff"/>
    </g>
  </g>
  <line id="Line_6" data-name="Line 6" y2="192.459" transform="translate(391.594 120.729)" fill="#fff" stroke="#fff" stroke-linecap="round" stroke-linejoin="round" stroke-width="3"/>
  <g id="Group_401" data-name="Group 401">
    <path id="Path_702" data-name="Path 702" d="M332.438,122.569v52.38l-1.56.36a13.951,13.951,0,0,0,2.99,27.55l.09-.01c.06,0,.13-.01.2-.01h.05a13.927,13.927,0,0,0,3.12-27.46L335.8,175v-52.43a1.68,1.68,0,0,0-3.36,0Zm12.16,66.32A10.6,10.6,0,1,1,334,178.3,10.605,10.605,0,0,1,344.6,188.889Z" fill="#fff"/>
  </g>
  <g id="Group_402" data-name="Group 402">
    <path id="Path_703" data-name="Path 703" d="M366.828,122.569v8.17l-1.55.36a13.923,13.923,0,0,0,0,27.16l1.55.36v42.56a1.685,1.685,0,0,0,3.37,0v-42.61l1.52-.37a13.907,13.907,0,0,0,0-27.04l-1.52-.37v-8.22a1.685,1.685,0,0,0-3.37,0ZM379,144.679a10.6,10.6,0,1,1-10.6-10.6A10.618,10.618,0,0,1,379,144.679Z" fill="#fff"/>
  </g>
  <g id="Group_403" data-name="Group 403">
    <path id="Path_704" data-name="Path 704" d="M331.863,232.043v52.38l-1.56.36a13.951,13.951,0,0,0,2.99,27.55l.09-.01c.06,0,.13-.01.2-.01h.05a13.927,13.927,0,0,0,3.12-27.46l-1.53-.38v-52.43a1.68,1.68,0,0,0-3.36,0Zm12.16,66.32a10.6,10.6,0,1,1-10.6-10.59A10.605,10.605,0,0,1,344.023,298.363Z" fill="#fff"/>
  </g>
  <g id="Group_404" data-name="Group 404">
    <path id="Path_705" data-name="Path 705" d="M366.253,232.043v8.17l-1.55.36a13.923,13.923,0,0,0,0,27.16l1.55.36v42.56a1.685,1.685,0,0,0,3.37,0v-42.61l1.52-.37a13.907,13.907,0,0,0,0-27.04l-1.52-.37v-8.22a1.685,1.685,0,0,0-3.37,0Zm12.17,22.11a10.6,10.6,0,1,1-10.6-10.6A10.618,10.618,0,0,1,378.423,254.153Z" fill="#fff"/>
  </g>
</svg>
