<svg id="LogoIcon" xmlns="http://www.w3.org/2000/svg" width="497" height="497" viewBox="0 0 497 497">
  <g id="Group_409" data-name="Group 409">
    <g id="Group_406" data-name="Group 406">
      <path id="Ellipse_11" data-name="Ellipse 11" d="M248.5,0C385.743,0,497,111.257,497,248.5S385.743,497,248.5,497,0,385.743,0,248.5,111.257,0,248.5,0Z" fill="#72cb34"/>
      <line id="Line_7" data-name="Line 7" x2="78.255" transform="translate(15.344 276.634)" fill="none" stroke="#fff" stroke-linecap="round" stroke-miterlimit="10" stroke-width="4"/>
      <line id="Line_8" data-name="Line 8" x2="74.08" transform="translate(410.389 276.634)" fill="none" stroke="#fff" stroke-linecap="round" stroke-miterlimit="10" stroke-width="4"/>
      <path id="Path_706" data-name="Path 706" d="M182.594,389.884l-112.125-.291v15.563" fill="none" stroke="#fff" stroke-linecap="round" stroke-linejoin="round" stroke-width="3"/>
      <path id="Path_707" data-name="Path 707" d="M321.049,389.884l105.295-.291v15.563" fill="none" stroke="#fff" stroke-linecap="round" stroke-linejoin="round" stroke-width="3"/>
      <path id="Path_708" data-name="Path 708" d="M202.09,11.4,194.8,22.645a6.4,6.4,0,0,0,4.937,10.472H303.25A6.4,6.4,0,0,0,308.531,23.1l-6.858-10.018" fill="none" stroke="#fff" stroke-linecap="round" stroke-linejoin="round" stroke-width="3"/>
      <path id="Path_709" data-name="Path 709" d="M269.639,33.117a18.145,18.145,0,0,1-36.29,0" fill="none" stroke="#fff" stroke-miterlimit="10" stroke-width="3"/>
    </g>
    <g id="Group_408" data-name="Group 408">
      <g id="Rectangle_103" data-name="Rectangle 103" transform="translate(92.599 102.259)" fill="none" stroke="#fff" stroke-miterlimit="10" stroke-width="4">
        <rect width="317.79" height="259.905" rx="17.008" stroke="none"/>
        <rect x="2" y="2" width="313.79" height="255.905" rx="15.008" fill="none"/>
      </g>
      <line id="Line_9" data-name="Line 9" x2="316.79" transform="translate(93.599 331.009)" fill="none" stroke="#fff" stroke-miterlimit="10" stroke-width="4"/>
      <rect id="Rectangle_104" data-name="Rectangle 104" width="138.455" height="30" transform="translate(182.594 359.884)" fill="none" stroke="#fff" stroke-miterlimit="10" stroke-width="3"/>
      <g id="Group_407" data-name="Group 407">
        <path id="Path_710" data-name="Path 710" d="M254.409,345.744v.07a2.916,2.916,0,0,1-5.83.01v-.08a2.915,2.915,0,0,1,5.83,0Z" fill="#fff"/>
      </g>
    </g>
  </g>
  <rect id="Rectangle_105" data-name="Rectangle 105" width="46.125" height="73.775" transform="translate(31.938 202.859)" fill="none" stroke="#fff" stroke-miterlimit="10" stroke-width="3"/>
  <line id="Line_10" data-name="Line 10" y1="31.251" transform="translate(45.438 170.962)" fill="none" stroke="#fff" stroke-linecap="round" stroke-linejoin="round" stroke-width="3"/>
  <line id="Line_11" data-name="Line 11" y1="19.641" transform="translate(51.781 183.218)" fill="none" stroke="#fff" stroke-linecap="round" stroke-linejoin="round" stroke-width="3"/>
  <line id="Line_12" data-name="Line 12" y2="226.509" transform="translate(141.219 104.5)" fill="none" stroke="#fff" stroke-linecap="round" stroke-linejoin="round" stroke-width="3"/>
  <line id="Line_13" data-name="Line 13" y2="226.509" transform="translate(344 104.5)" fill="none" stroke="#fff" stroke-linecap="round" stroke-linejoin="round" stroke-width="3"/>
  <line id="Line_14" data-name="Line 14" x2="63.844" transform="translate(344 149.781)" fill="none" stroke="#fff" stroke-linecap="round" stroke-linejoin="round" stroke-width="3"/>
  <line id="Line_15" data-name="Line 15" x2="63.844" transform="translate(344 240.355)" fill="none" stroke="#fff" stroke-linecap="round" stroke-linejoin="round" stroke-width="3"/>
  <g id="Group_412" data-name="Group 412">
    <g id="Group_410" data-name="Group 410">
      <path id="Path_711" data-name="Path 711" d="M307.239,218.673l-49.13-16.86a1.7,1.7,0,0,0-.54-.09,1.747,1.747,0,0,0-1.2.49,1.684,1.684,0,0,0-.4,1.73l16.86,49.14a1.658,1.658,0,0,0,1.52,1.13,1.705,1.705,0,0,0,1.61-1l9.67-21.73,21.74-9.68a1.662,1.662,0,0,0,1-1.61A1.683,1.683,0,0,0,307.239,218.673Zm-23.57,9.99a1.716,1.716,0,0,0-.86.86l-8.19,18.41-14.35-41.81,41.82,14.34Z" fill="#fff"/>
    </g>
    <g id="Group_411" data-name="Group 411">
      <g id="Path_592" data-name="Path 592">
        <path id="Path_712" data-name="Path 712" d="M238.253,211.433a12.757,12.757,0,0,0-6.03,3.98,31.688,31.688,0,0,0-4.49,6.01,53.583,53.583,0,0,1-16.95,17.94c-1.39.95-2.82,1.87-4.24,2.79l-1.29.83a1.014,1.014,0,0,0-.46.63,1.032,1.032,0,0,0,.12.77.989.989,0,0,0,1.39.34c7.87-4.75,13.32-9.16,17.68-14.3a56.234,56.234,0,0,0,5.22-7.48,35.885,35.885,0,0,1,5.13-6.75,9.793,9.793,0,0,1,6.03-3.1v-2.04A13.073,13.073,0,0,0,238.253,211.433Zm1.75-42.64a49.49,49.49,0,0,0-42.42,74.86,50.211,50.211,0,0,0,42.78,24.63v-2.09c-3.94-.04-11.01-1.08-12.94-2.06l-.99-.5.61-.94a23.193,23.193,0,0,1,6.48-6.54,9.076,9.076,0,0,1,1.53-.71,3.909,3.909,0,0,1,4.34.99,8.939,8.939,0,0,1,.97,1.15v-3.06a6.117,6.117,0,0,0-6.46-.85,15.439,15.439,0,0,0-5.83,4.47c-.86,1.01-1.68,2.02-2.5,3.05-.37.46-.74.93-1.12,1.4l-.48.59-6.65-2.94,1.48-1.25c.16-.14.3-.26.45-.38a256.342,256.342,0,0,0,19.76-17.32c.45-.44.89-.89,1.35-1.36v-2.91c-1.76,1.9-3.62,3.73-5.54,5.46-5.32,4.98-11.15,9.97-18.33,15.68-.12.1-.25.19-.39.29l-.76.55-6.44-4.68,1.33-.97c.15-.11.28-.2.41-.29a116.6,116.6,0,0,0,18.32-15.44,81.856,81.856,0,0,0,11.4-14.62v-3.38a.942.942,0,0,0-.71.5,68.087,68.087,0,0,1-5.79,8.73,108.361,108.361,0,0,1-23.88,22.16c-.41.28-.83.57-1.29.88l-1.44.97-.58-.69c-.46-.53-.91-1.06-1.37-1.59-1.02-1.18-2.08-2.4-3.04-3.68a45.959,45.959,0,0,1-8.7-19.87,47.748,47.748,0,0,1,34.99-54.49,48.641,48.641,0,0,1,11.81-1.46V168.8C240.243,168.793,240.123,168.793,240,168.793Zm-7.78,46.62a31.688,31.688,0,0,0-4.49,6.01,53.583,53.583,0,0,1-16.95,17.94c-1.39.95-2.82,1.87-4.24,2.79l-1.29.83a1.014,1.014,0,0,0-.46.63,1.032,1.032,0,0,0,.12.77.989.989,0,0,0,1.39.34c7.87-4.75,13.32-9.16,17.68-14.3a56.234,56.234,0,0,0,5.22-7.48,35.885,35.885,0,0,1,5.13-6.75,9.793,9.793,0,0,1,6.03-3.1v-2.04a13.073,13.073,0,0,0-2.11.38A12.757,12.757,0,0,0,232.223,215.413Zm-2.75-9.31a24.167,24.167,0,0,0-7.11,8.76,33.069,33.069,0,0,1-10.25,12.08c-1.31,1-2.74,1.91-4.12,2.79-.6.38-1.19.76-1.78,1.15-.16.1-.34.2-.51.3-.15.09-.3.17-.44.27a1.018,1.018,0,0,0,.26,1.86,1,1,0,0,0,.74-.11,50.6,50.6,0,0,0,10.51-7.48,30.423,30.423,0,0,0,7.27-9.68,24.514,24.514,0,0,1,7.39-8.83,14.229,14.229,0,0,1,8.93-2.8V202.4c-.62-.02-1.25-.01-1.88.03A16.31,16.31,0,0,0,229.473,206.1Z" fill="#fff"/>
      </g>
      <g id="Path_593" data-name="Path 593">
        <path id="Path_713" data-name="Path 713" d="M240.363,193.8v2.09c-8.02.13-14.92,3.81-20.56,11.02a26.107,26.107,0,0,0-2.37,3.7,25.029,25.029,0,0,1-11.01,10.49l-.09.05a1,1,0,0,1-.77.14,1.044,1.044,0,0,1-.67-.52,1.082,1.082,0,0,1,.45-1.46l.12-.06c.39-.26.79-.51,1.18-.77a44.885,44.885,0,0,0,4.01-2.77,19.741,19.741,0,0,0,5.15-6.48A28.9,28.9,0,0,1,240.363,193.8Z" fill="#fff"/>
      </g>
      <g id="Path_594" data-name="Path 594">
        <path id="Path_714" data-name="Path 714" d="M227.713,187.893c-8.43,3.71-15.27,10-20.92,19.24a.914.914,0,0,0-.1.28.975.975,0,0,0,.77,1.14,1.089,1.089,0,0,0,1.26-.62l.06-.12a48.877,48.877,0,0,1,10.74-12.45c6.39-5.25,13.37-7.95,20.84-8.08v-2.07A32.878,32.878,0,0,0,227.713,187.893Z" fill="#fff"/>
        <path id="Path_715" data-name="Path 715" d="M240.363,185.213v2.07c-7.47.13-14.45,2.83-20.84,8.08a48.877,48.877,0,0,0-10.74,12.45l-.06.12a1.089,1.089,0,0,1-1.26.62.975.975,0,0,1-.77-1.14.914.914,0,0,1,.1-.28c5.65-9.24,12.49-15.53,20.92-19.24A32.878,32.878,0,0,1,240.363,185.213Z" fill="#fff"/>
      </g>
      <g id="Path_595" data-name="Path 595">
        <path id="Path_716" data-name="Path 716" d="M240.363,176.323v2.09a36.12,36.12,0,0,0-16.4,4.26,51,51,0,0,0-11.58,8.1,2.634,2.634,0,0,1-.76.52,1.057,1.057,0,0,1-.74-.09,1.009,1.009,0,0,1-.49-.6,1.032,1.032,0,0,1,.24-1.01c.97-.92,2-1.89,3.12-2.78a47.872,47.872,0,0,1,19.26-9.62A34.334,34.334,0,0,1,240.363,176.323Z" fill="#fff"/>
      </g>
    </g>
    <line id="Line_16" data-name="Line 16" y1="135.068" transform="translate(240.363 147.829)" fill="none" stroke="#fff" stroke-linecap="round" stroke-linejoin="round" stroke-width="3" stroke-dasharray="3 9.621"/>
    <line id="Line_17" data-name="Line 17" x1="139.426" transform="translate(172.896 294.756)" fill="none" stroke="#fff" stroke-linecap="round" stroke-linejoin="round" stroke-width="3"/>
    <line id="Line_18" data-name="Line 18" y2="138.258" transform="translate(320.991 147.829)" fill="none" stroke="#fff" stroke-linecap="round" stroke-linejoin="round" stroke-width="3"/>
    <line id="Line_19" data-name="Line 19" x2="139.426" transform="translate(172.896 137.993)" fill="none" stroke="#fff" stroke-linecap="round" stroke-linejoin="round" stroke-width="3"/>
    <line id="Line_20" data-name="Line 20" y1="138.258" transform="translate(164.228 147.829)" fill="none" stroke="#fff" stroke-linecap="round" stroke-linejoin="round" stroke-width="3"/>
    <rect id="Rectangle_106" data-name="Rectangle 106" width="17.336" height="17.336" transform="translate(155.56 130.493)" fill="none" stroke="#fff" stroke-linecap="round" stroke-linejoin="round" stroke-width="3"/>
    <rect id="Rectangle_107" data-name="Rectangle 107" width="17.336" height="17.336" transform="translate(312.323 130.493)" fill="none" stroke="#fff" stroke-linecap="round" stroke-linejoin="round" stroke-width="3"/>
    <rect id="Rectangle_108" data-name="Rectangle 108" width="17.336" height="17.336" transform="translate(155.56 286.088)" fill="none" stroke="#fff" stroke-linecap="round" stroke-linejoin="round" stroke-width="3"/>
    <rect id="Rectangle_109" data-name="Rectangle 109" width="17.336" height="17.336" transform="translate(312.323 286.088)" fill="none" stroke="#fff" stroke-linecap="round" stroke-linejoin="round" stroke-width="3"/>
  </g>
  <g id="Group_417" data-name="Group 417">
    <g id="Group_413" data-name="Group 413">
      <path id="Path_717" data-name="Path 717" d="M356.547,184.964h25.82l.178.769a6.877,6.877,0,0,0,13.58-1.474l-.005-.045c0-.029-.005-.064-.005-.1v-.025a6.865,6.865,0,0,0-13.536-1.538l-.187.754H356.547a.828.828,0,1,0,0,1.657Zm32.692-6a5.223,5.223,0,1,1-5.22,5.226A5.228,5.228,0,0,1,389.239,178.969Z" fill="#fff"/>
    </g>
    <g id="Group_414" data-name="Group 414">
      <path id="Path_718" data-name="Path 718" d="M356.547,168.011h4.027l.177.764a6.864,6.864,0,0,0,13.389,0l.177-.764H395.3a.831.831,0,0,0,0-1.661h-21l-.183-.749a6.855,6.855,0,0,0-13.329,0l-.182.749h-4.052a.83.83,0,0,0,0,1.661Zm10.9-6a5.225,5.225,0,1,1-5.226,5.225A5.234,5.234,0,0,1,367.446,162.012Z" fill="#fff"/>
    </g>
    <g id="Group_415" data-name="Group 415">
      <path id="Path_719" data-name="Path 719" d="M356.547,223.673h25.82l.178.769a6.877,6.877,0,0,0,13.58-1.474l-.005-.044c0-.03-.005-.064-.005-.1V222.8a6.865,6.865,0,0,0-13.536-1.538l-.187.754H356.547a.828.828,0,1,0,0,1.656Zm32.692-5.994a5.223,5.223,0,1,1-5.22,5.225A5.228,5.228,0,0,1,389.239,217.679Z" fill="#fff"/>
    </g>
    <g id="Group_416" data-name="Group 416">
      <path id="Path_720" data-name="Path 720" d="M356.547,206.721h4.027l.177.764a6.864,6.864,0,0,0,13.389,0l.177-.764H395.3a.831.831,0,0,0,0-1.661h-21l-.183-.75a6.855,6.855,0,0,0-13.329,0l-.182.75h-4.052a.83.83,0,0,0,0,1.661Zm10.9-6a5.225,5.225,0,1,1-5.226,5.225A5.234,5.234,0,0,1,367.446,200.722Z" fill="#fff"/>
    </g>
  </g>
</svg>
