<svg id="PassionateIcon" xmlns="http://www.w3.org/2000/svg" width="213.201" height="213.201" viewBox="0 0 213.201 213.201">
  <path id="Ellipse_11" data-name="Ellipse 11" d="M106.6,0A106.6,106.6,0,1,1,0,106.6,106.6,106.6,0,0,1,106.6,0Z" fill="#72cb34"/>
  <g id="Group_850" data-name="Group 850" transform="translate(39.444 40)">
    <path id="Path_1960" data-name="Path 1960" d="M120.446,17.088A22.832,22.832,0,0,0,102.269,8,22.566,22.566,0,0,0,86.2,14.656l-.171.169-.169-.169A22.573,22.573,0,0,0,69.8,8,22.824,22.824,0,0,0,54.8,13.668a7.519,7.519,0,0,0-9.193-.552A7.545,7.545,0,0,0,32.742,10.63a7.581,7.581,0,0,0-13.323,4.983v3.806A11.431,11.431,0,0,0,8,30.839v22.42a13.34,13.34,0,0,0,3.207,8.671l8.212,9.581V126H57.484V71.537a27.7,27.7,0,0,0,5.991-9.794L86.032,80.918l30.027-25.524a28.214,28.214,0,0,0,4.387-38.306ZM61.29,19.419A3.81,3.81,0,0,1,65.1,23.226V38.452a3.806,3.806,0,1,1-7.613,0V23.226A3.81,3.81,0,0,1,61.29,19.419ZM49.871,15.613a3.81,3.81,0,0,1,3.806,3.806V38.452a3.806,3.806,0,1,1-7.613,0V19.419A3.81,3.81,0,0,1,49.871,15.613Zm-19.5,24.632a21.058,21.058,0,0,0-3.038-4.412l3.508-.638v3.256A3.774,3.774,0,0,1,30.369,40.244ZM34.645,34.5l4.238-.771a8.668,8.668,0,0,0,3.374-1.422v6.142a3.806,3.806,0,1,1-7.613,0Zm3.806-22.7a3.81,3.81,0,0,1,3.806,3.806V19.77a5.645,5.645,0,0,0-1.9-.35h-5.71V15.613A3.81,3.81,0,0,1,38.452,11.806ZM23.226,15.613a3.806,3.806,0,1,1,7.613,0v3.806H23.226ZM11.806,53.259V30.839a7.621,7.621,0,0,1,7.613-7.613H40.355a1.906,1.906,0,0,1,1.9,1.9A4.935,4.935,0,0,1,38.2,29.988L18.6,33.553l3.487,2.615a17.212,17.212,0,0,1,6.852,13.7v3.806h3.806V49.871a20.81,20.81,0,0,0-.784-5.635,7.425,7.425,0,0,0,.8-.786,7.51,7.51,0,0,0,11.4-.015,7.512,7.512,0,0,0,11.419,0,7.566,7.566,0,0,0,5.71,2.63v6.362a23.894,23.894,0,0,1-6.113,15.995c-2.461-1.2-8.032-3.325-16.726-3.325-8.646,0-14.2,2.1-16.684,3.3L14.1,59.452a9.52,9.52,0,0,1-2.29-6.193Zm41.871,68.935H23.226V71.927c1.911-.952,7.017-3.024,15.226-3.024s13.321,2.075,15.226,3.024Zm59.917-69.7L86.032,75.922,64.592,57.7a28.209,28.209,0,0,0,.5-5.274V45A7.588,7.588,0,0,0,68.9,38.45V23.226a7.607,7.607,0,0,0-11.874-6.3c-.011-.032-.019-.065-.03-.1a18.979,18.979,0,0,1,12.8-5.019,18.789,18.789,0,0,1,13.374,5.54l2.862,2.861,2.861-2.861a18.793,18.793,0,0,1,13.376-5.54A19.005,19.005,0,0,1,117.4,19.374a24.406,24.406,0,0,1-3.806,33.12Z" fill="#fff"/>
    <path id="Path_1961" data-name="Path 1961" d="M415.729,48.436a16.028,16.028,0,0,1,1.325,2.084l3.359-1.791a19.952,19.952,0,0,0-1.639-2.577,15.116,15.116,0,0,0-11.063-6.008l-.263,3.8a11.32,11.32,0,0,1,8.281,4.5Z" transform="translate(-304.418 -24.497)" fill="#fff"/>
    <path id="Path_1962" data-name="Path 1962" d="M433.621,93.88l-3.671,1.007a16.382,16.382,0,0,1,.584,4.315,16.926,16.926,0,0,1-5.917,12.942l-2.033,1.728,2.465,2.9,2.033-1.726A20.73,20.73,0,0,0,434.34,99.2a20.134,20.134,0,0,0-.719-5.321Z" transform="translate(-315.953 -65.449)" fill="#fff"/>
    <path id="Path_1963" data-name="Path 1963" d="M164.065,187.932l-.923-3.692a14.958,14.958,0,0,0-10.9,10.9l3.692.923a11.159,11.159,0,0,1,8.133-8.132Z" transform="translate(-109.925 -134.312)" fill="#fff"/>
  </g>
</svg>
