<svg id="ProfessionalIcon" xmlns="http://www.w3.org/2000/svg" width="213.201" height="213.201" viewBox="0 0 213.201 213.201">
  <g id="Group_851" data-name="Group 851">
    <path id="Ellipse_11" data-name="Ellipse 11" d="M106.6,0A106.6,106.6,0,1,1,0,106.6,106.6,106.6,0,0,1,106.6,0Z" fill="#72cb34"/>
  </g>
  <path id="Path_1964" data-name="Path 1964" d="M95.3,60.042c0-.217.011-32.215.011-32.215L47.656,4,0,27.828V59.392a59.011,59.011,0,0,0,26.316,49.181l21.34,14.221L64.1,111.843A32.38,32.38,0,1,0,95.3,60.04ZM47.656,118.219,28.432,105.4A55.2,55.2,0,0,1,3.812,59.392V30.184L47.656,8.262,91.5,30.184V59.6c-.633-.038-1.26-.1-1.906-.1s-1.275.059-1.906.1V32.535L47.656,12.521,7.625,32.537V59.392a51.409,51.409,0,0,0,22.922,42.837l17.109,11.4,12.471-8.309a32.322,32.322,0,0,0,1.8,3.386ZM58.7,101.69l-11.045,7.358-14.992-9.99c-.74-.494-1.457-1.013-2.164-1.544V80.475H26.687V94.314a47.638,47.638,0,0,1-5.719-6.348V76.889a5.719,5.719,0,0,1,4.325-5.545L38.222,68.1a9.521,9.521,0,0,0,7.528,8.369v7.816h3.813V76.472A9.517,9.517,0,0,0,57.089,68.1l8.486,2.131A32.241,32.241,0,0,0,58.7,101.688ZM38.125,44.256h5.269a20.077,20.077,0,0,0,8.511-1.906h.517L57.187,48.7v7.943l-6.354,4.766H44.478l-6.354-4.766Zm-3.654-3.813a7.458,7.458,0,0,1,4.083-5.509,19.249,19.249,0,0,1,13.386-.842l.438.633h2.9a1.906,1.906,0,0,1,1.906,1.906V42.35l-2.859-3.813H51.019l-.4.2a16.251,16.251,0,0,1-7.223,1.706Zm18.9,23.828v2.859a5.719,5.719,0,0,1-11.438,0V64.272l1.271.953H52.1Zm3.813-.074V61.413L61,58.553V36.631a5.719,5.719,0,0,0-5.719-5.719H54.014c-2.758-1.676-9.624-2.015-14.488-.494A11.863,11.863,0,0,0,30.5,42.35v1.906h3.813v14.3l3.813,2.859v2.776l-13.759,3.46a9.514,9.514,0,0,0-7.21,9.241v5.147a47.6,47.6,0,0,1-5.719-22.644v-24.5L47.656,16.784,83.875,34.893v24.5c0,.219-.013.437-.015.653A32.255,32.255,0,0,0,68.778,67.11Zm32.406,56.309a28.594,28.594,0,1,1,28.594-28.594A28.594,28.594,0,0,1,89.594,120.507Z" transform="translate(45.444 42)" fill="#fff"/>
</svg>
