<svg id="ReliabilityIcon" xmlns="http://www.w3.org/2000/svg" width="213.201" height="213.201" viewBox="0 0 213.201 213.201">
  <g id="Group_866" data-name="Group 866">
    <path id="Ellipse_11" data-name="Ellipse 11" d="M106.6,0A106.6,106.6,0,1,1,0,106.6,106.6,106.6,0,0,1,106.6,0Z" fill="#72cb34"/>
  </g>
  <g id="Group_886" data-name="Group 886" transform="translate(35.444 36)">
    <path id="Path_1983" data-name="Path 1983" d="M129.935,16.129h-13.61L113.99,14.57A39.02,39.02,0,0,0,92.284,8H77.1a4.069,4.069,0,0,0-4.065,4.065,8.053,8.053,0,0,0,1.13,4.067l-11.291,0a6.077,6.077,0,0,0-5.65,8.365,6.061,6.061,0,0,0-2.9,1.77l-2.055-2.055L49.3,27.168a3.921,3.921,0,0,1-4.351.8,3.877,3.877,0,0,1-2.4-3.6V20.194H30.355V24.37a3.986,3.986,0,0,1-6.757,2.8l-2.957-2.959-8.625,8.625,2.957,2.959a3.93,3.93,0,0,1,.8,4.351,3.879,3.879,0,0,1-3.6,2.4H8V54.742h4.176a3.984,3.984,0,0,1,2.8,6.757l-2.959,2.957,8.625,8.625L23.6,70.122a3.98,3.98,0,0,1,6.753,2.8V77.1h2.032v4.117a55.643,55.643,0,0,0,1.238,11.553,39.177,39.177,0,0,0-5.613,3.093l-2.337,1.559H12.065A4.069,4.069,0,0,0,8,101.484v24.387a4.069,4.069,0,0,0,4.065,4.065H24.258a4.065,4.065,0,0,0,3.7-2.394A39.286,39.286,0,0,0,49.464,134H66.935a6.068,6.068,0,0,0,2.364-.478c.352.124.7.254,1.057.372l.644.215.644-.213a55.411,55.411,0,0,0,24.192-16.089,4.241,4.241,0,0,1,1.211.293,3.879,3.879,0,0,1,2.4,3.6v4.176h12.194v-4.176a3.983,3.983,0,0,1,6.755-2.8l2.959,2.959,8.625-8.625-2.957-2.959a3.93,3.93,0,0,1-.8-4.351,3.879,3.879,0,0,1,3.6-2.4H134V91.323h-4.176a3.984,3.984,0,0,1-2.8-6.757l2.957-2.959-8.625-8.625L118.4,75.94a3.921,3.921,0,0,1-4.351.8,3.874,3.874,0,0,1-2.4-3.593V68.968h-2.032v-20.2a39.348,39.348,0,0,0,4.43-2.52,4.066,4.066,0,0,0,3.7,2.4h12.194A4.069,4.069,0,0,0,134,44.581V20.194a4.069,4.069,0,0,0-4.065-4.065ZM62.871,20.194l18.29,0v0H87.6a3.946,3.946,0,0,1,3.091,1.51,15.692,15.692,0,0,0-2.349,2.555H62.871a2.032,2.032,0,0,1,0-4.065ZM75.4,38.976l-3.786-2.524h13.61v4.065H77.983C77.1,40.041,76.237,39.535,75.4,38.976Zm-11.385,1.54H62.871a2.032,2.032,0,1,1,0-4.065h7.513L66.6,38.976c-.837.559-1.7,1.065-2.583,1.54ZM58.806,28.323H86.171a15.735,15.735,0,0,0-.866,4.065h-26.5a2.032,2.032,0,0,1,0-4.065ZM29.436,65.539a7.949,7.949,0,0,0-8.712,1.709l-.083.085-2.878-2.878.085-.085a8.047,8.047,0,0,0-5.672-13.693h-.112V46.613h.112A8.047,8.047,0,0,0,17.848,32.92l-.085-.085,2.878-2.878.085.085A8.047,8.047,0,0,0,34.419,24.37v-.112h4.065v.112a8.047,8.047,0,0,0,13.693,5.672l.085-.085.451.453a6.086,6.086,0,0,0,4.508,5.808,6.037,6.037,0,0,0,1.388,6.615,33.626,33.626,0,0,1-8.566,1.642A14.221,14.221,0,1,0,32.387,62.269v5.349a8.162,8.162,0,0,0-2.951-2.079ZM32.387,42.1V57.924A10.141,10.141,0,1,1,45.674,44.457a33.069,33.069,0,0,1-4.134-.524Zm-8.129,83.77H12.065V101.484H24.258Zm42.677,4.065H49.464a35.179,35.179,0,0,1-21.142-7.125V100.539l1.943-1.3a34.961,34.961,0,0,1,19.451-5.887H60.839a4.066,4.066,0,0,1-4.056,4.065H50.665v4.065h24.4a2.032,2.032,0,0,1,0,4.065H50.677v4.065H79.129a2.032,2.032,0,1,1,0,4.065H50.677v4.065H75.065a2.032,2.032,0,1,1,0,4.065H50.677v4.065H66.935a2.032,2.032,0,0,1,0,4.065ZM44.581,81.214V56.64c1.171.089,2.343.134,3.506.134a45.9,45.9,0,0,0,20.881-4.682V97.419H63.773a8.045,8.045,0,0,0,1.13-4.065,4.069,4.069,0,0,0-4.065-4.065H49.716a39.092,39.092,0,0,0-4.317.264,43.593,43.593,0,0,1-.819-8.34ZM85.2,111.379a6.08,6.08,0,0,0-4.485-5.595,6.077,6.077,0,0,0-5.65-8.365H73.032V52.092a45.874,45.874,0,0,0,20.881,4.682c1.162,0,2.335-.045,3.506-.134V81.216A43.2,43.2,0,0,1,85.2,111.379ZM72.914,129.07a6.137,6.137,0,0,0,.118-1.167,6.028,6.028,0,0,0-.374-2.032h2.406a6.087,6.087,0,0,0,6.06-5.741,47.227,47.227,0,0,0,20.359-38.916V52.08l-2.288.293a41.943,41.943,0,0,1-5.282.337,40.807,40.807,0,0,1-21.845-5.794L71,46.253l-1.069.663A40.807,40.807,0,0,1,48.086,52.71a41.968,41.968,0,0,1-5.282-.337l-2.288-.293V81.214a47.767,47.767,0,0,0,.866,8.976,38.659,38.659,0,0,0-3.922,1.087,51.706,51.706,0,0,1-1.008-10.064V47.06l4.294.86a37.586,37.586,0,0,0,7.341.726,37.317,37.317,0,0,0,20.768-6.288L71,40.927l2.146,1.431a37.312,37.312,0,0,0,20.768,6.288,37.622,37.622,0,0,0,7.343-.726l4.292-.86V81.216A51.364,51.364,0,0,1,72.914,129.07Zm36.249-41.121a10.146,10.146,0,0,1-3.615,19.632,10.124,10.124,0,0,1-2.447-.3,55.4,55.4,0,0,0,6.062-19.329Zm3.4-7.426a7.939,7.939,0,0,0,8.712-1.707l.085-.085,2.878,2.878-.085.085a8.047,8.047,0,0,0,5.672,13.693h.112v4.065h-.112a8.047,8.047,0,0,0-5.672,13.693l.085.085-2.878,2.878-.085-.085a8.046,8.046,0,0,0-13.693,5.672v.112h-4.065v-.112a7.949,7.949,0,0,0-4.892-7.334q1.256-1.689,2.382-3.469a14.074,14.074,0,0,0,4.542.754,14.218,14.218,0,0,0,3.963-27.874c.039-.852.1-1.7.1-2.557v-2.77A8.123,8.123,0,0,0,112.562,80.523Zm-12.1-36.589a33.326,33.326,0,0,1-11.169.272V33.657a11.694,11.694,0,0,1,3.768-8.592,10.541,10.541,0,0,0,7.639,3.258h.786V24.258H100.7A6.527,6.527,0,0,1,94.82,20.6,8.021,8.021,0,0,0,87.6,16.129h-6.45A4.066,4.066,0,0,1,77.1,12.065H92.284a34.961,34.961,0,0,1,19.451,5.887l1.943,1.3V41.532a35.231,35.231,0,0,1-4.065,2.654V42.1Zm29.476.646H117.742V20.194h12.194Z" fill="#fff"/>
    <path id="Path_1984" data-name="Path 1984" d="M354.11,104.727a13.675,13.675,0,0,0-9.7,8.983L348.263,115a9.629,9.629,0,0,1,6.832-6.326l1.894-.474L356,104.256Z" transform="translate(-250.949 -71.804)" fill="#fff"/>
    <path id="Path_1985" data-name="Path 1985" d="M8,312h4.065v4.065H8Z" transform="translate(0 -226.774)" fill="#fff"/>
    <path id="Path_1986" data-name="Path 1986" d="M40,312h4.065v4.065H40Z" transform="translate(-23.871 -226.774)" fill="#fff"/>
    <path id="Path_1987" data-name="Path 1987" d="M72,312h4.065v4.065H72Z" transform="translate(-47.742 -226.774)" fill="#fff"/>
    <path id="Path_1988" data-name="Path 1988" d="M424,200h4.065v4.065H424Z" transform="translate(-310.323 -143.226)" fill="#fff"/>
    <path id="Path_1989" data-name="Path 1989" d="M456,200h4.065v4.065H456Z" transform="translate(-334.194 -143.226)" fill="#fff"/>
    <path id="Path_1990" data-name="Path 1990" d="M488,200h4.065v4.065H488Z" transform="translate(-358.065 -143.226)" fill="#fff"/>
  </g>
</svg>
