<svg id="TrustworthIcon" xmlns="http://www.w3.org/2000/svg" width="213.201" height="213.201" viewBox="0 0 213.201 213.201">
  <g id="Group_865" data-name="Group 865">
    <path id="Ellipse_11" data-name="Ellipse 11" d="M106.6,0A106.6,106.6,0,1,1,0,106.6,106.6,106.6,0,0,1,106.6,0Z" fill="#72cb34"/>
  </g>
  <g id="Group_885" data-name="Group 885" transform="translate(46.444 48)">
    <g id="Group_868" data-name="Group 868" transform="translate(0 16.428)">
      <g id="Group_867" data-name="Group 867" transform="translate(0)">
        <path id="Path_1974" data-name="Path 1974" d="M31.666,98.444,4,70.78A2.344,2.344,0,0,0,.687,74.094L27.663,101.07l0,3.23A2.344,2.344,0,0,0,30,106.648h0a2.344,2.344,0,0,0,2.344-2.34l.006-4.2A2.344,2.344,0,0,0,31.666,98.444Z" transform="translate(0 -70.093)" fill="#fff"/>
      </g>
    </g>
    <g id="Group_870" data-name="Group 870" transform="translate(16.428 0)">
      <g id="Group_869" data-name="Group 869">
        <path id="Path_1975" data-name="Path 1975" d="M106.6,27.656h0l-5.53.008L74.094.687A2.344,2.344,0,0,0,70.78,4L98.444,31.666a2.344,2.344,0,0,0,1.657.686h0l6.5-.009a2.344,2.344,0,0,0,0-4.688Z" transform="translate(-70.093 -0.001)" fill="#fff"/>
      </g>
    </g>
    <g id="Group_872" data-name="Group 872" transform="translate(98.886)">
      <g id="Group_871" data-name="Group 871">
        <path id="Path_1976" data-name="Path 1976" d="M425.912.687a2.344,2.344,0,0,0-4,1.657,2.344,2.344,0,1,0,4-1.657Z" transform="translate(-421.911)" fill="#fff"/>
      </g>
    </g>
    <g id="Group_874" data-name="Group 874" transform="translate(50.124 6.864)">
      <g id="Group_873" data-name="Group 873">
        <path id="Path_1977" data-name="Path 1977" d="M259.76,29.974a2.344,2.344,0,0,0-3.315,0L236.333,50.086l-3.23,0h-.034a23.061,23.061,0,0,0-16.415,6.8l-2.106,2.107a2.344,2.344,0,1,0,3.315,3.315L219.97,60.2a18.4,18.4,0,0,1,13.1-5.426h.027l4.2.006h0a2.344,2.344,0,0,0,1.657-.686l20.8-20.8A2.344,2.344,0,0,0,259.76,29.974Z" transform="translate(-213.862 -29.288)" fill="#fff"/>
      </g>
    </g>
    <g id="Group_876" data-name="Group 876" transform="translate(87.649 16.428)">
      <g id="Group_875" data-name="Group 875">
        <path id="Path_1978" data-name="Path 1978" d="M405.633,70.778a2.344,2.344,0,0,0-3.315,0L374.654,98.443a2.345,2.345,0,0,0-.686,1.661l.009,6.5a2.344,2.344,0,0,0,2.344,2.34h0a2.344,2.344,0,0,0,2.34-2.347l-.008-5.53,26.976-26.976A2.344,2.344,0,0,0,405.633,70.778Z" transform="translate(-373.968 -70.092)" fill="#fff"/>
      </g>
    </g>
    <g id="Group_878" data-name="Group 878" transform="translate(86.062 58.992)">
      <g id="Group_877" data-name="Group 877">
        <path id="Path_1979" data-name="Path 1979" d="M400.449,292.277,373.472,265.3l0-3.23a23.092,23.092,0,0,0-1.771-8.927,2.344,2.344,0,1,0-4.33,1.8,18.433,18.433,0,0,1,1.414,7.124l-.006,4.2a2.344,2.344,0,0,0,.686,1.661l27.664,27.664a2.344,2.344,0,0,0,3.315-3.315Z" transform="translate(-367.196 -251.698)" fill="#fff"/>
      </g>
    </g>
    <g id="Group_880" data-name="Group 880" transform="translate(64.719 87.649)">
      <g id="Group_879" data-name="Group 879">
        <path id="Path_1980" data-name="Path 1980" d="M314.3,402.318l-27.664-27.664a2.344,2.344,0,0,0-1.657-.686h0l-6.5.009a2.344,2.344,0,0,0,0,4.688h0l5.53-.008,26.976,26.976a2.344,2.344,0,0,0,3.315-3.315Z" transform="translate(-276.131 -373.968)" fill="#fff"/>
      </g>
    </g>
    <g id="Group_882" data-name="Group 882" transform="translate(16.428 115.313)">
      <g id="Group_881" data-name="Group 881">
        <path id="Path_1981" data-name="Path 1981" d="M74.092,492.687a2.342,2.342,0,1,0,.687,1.657A2.36,2.36,0,0,0,74.092,492.687Z" transform="translate(-70.091 -492)" fill="#fff"/>
      </g>
    </g>
    <g id="Group_884" data-name="Group 884" transform="translate(0 36.352)">
      <g id="Group_883" data-name="Group 883">
        <path id="Path_1982" data-name="Path 1982" d="M83.822,178.216a6.571,6.571,0,0,0-1.773-1.264,6.6,6.6,0,0,0-2.983-9.218,6.6,6.6,0,0,0-8.812-8.815,6.609,6.609,0,0,0-10.662-1.89l-9.357,9.358a6.693,6.693,0,0,0-12.225-3.111l-6.42,9.574a23.135,23.135,0,0,0-3.934,12.962l.008,5.53L.688,218.32A2.344,2.344,0,1,0,4,221.634L31.666,193.97a2.345,2.345,0,0,0,.686-1.661l-.009-6.5a18.463,18.463,0,0,1,3.139-10.345l6.42-9.574a2.01,2.01,0,0,1,2.821-.527,2.015,2.015,0,0,1,.566,2.688l-2.509,4.138a2.971,2.971,0,0,0,4.642,3.641l15.483-15.483a1.915,1.915,0,0,1,2.861,2.536L56.6,172.065a2.344,2.344,0,1,0,3.315,3.315l11.845-11.866a1.915,1.915,0,1,1,2.709,2.709L62.618,178.078a2.344,2.344,0,1,0,3.315,3.315l9.173-9.174a1.915,1.915,0,0,1,2.536,2.86l-9.011,9.011a2.344,2.344,0,1,0,3.315,3.315l6.026-6.026a1.915,1.915,0,0,1,2.537,2.86L63.771,200.977a18.4,18.4,0,0,1-13.1,5.426h-.027l-4.2-.006h0a2.344,2.344,0,0,0-1.657.686L23,228.86a2.344,2.344,0,1,0,3.315,3.315l21.088-21.089,3.23,0h.034a23.061,23.061,0,0,0,16.415-6.8l16.736-16.737A6.611,6.611,0,0,0,83.822,178.216Z" transform="translate(-0.001 -155.1)" fill="#fff"/>
      </g>
    </g>
  </g>
</svg>
