<svg xmlns="http://www.w3.org/2000/svg" width="106" height="106"><defs><filter id="a" x="0" y="0" width="106" height="106" filterUnits="userSpaceOnUse"><feOffset/><feGaussianBlur stdDeviation="7.5" result="blur"/><feFlood flood-opacity=".161"/><feComposite operator="in" in2="blur"/><feComposite in="SourceGraphic"/></filter></defs><g data-name="Group 308"><g filter="url(#a)" data-name="Group 306"><path data-name="Path 613" d="M53 22.5A30.5 30.5 0 1122.5 53 30.5 30.5 0 0153 22.5z" fill="#fff"/></g><g data-name="Icon ionic-md-person-add" fill="#78c741"><path data-name="Path 624" d="M56.875 53a6.75 6.75 0 10-6.75-6.75 6.77 6.77 0 006.75 6.75zm0 3.375c-4.472 0-13.5 2.278-13.5 6.75V66.5h27v-3.375c0-4.472-9.028-6.75-13.5-6.75z"/><path data-name="Path 625" d="M43.375 50.75v-4.5h-2.25v4.5h-4.5V53h4.5v4.5h2.25V53h4.5v-2.25z"/></g></g></svg>