<svg id="Component_1_1" data-name="Component 1 – 1" xmlns="http://www.w3.org/2000/svg" width="497" height="497" viewBox="0 0 497 497">
  <path id="Ellipse_11" data-name="Ellipse 11" d="M248.5,0C385.743,0,497,111.257,497,248.5S385.743,497,248.5,497,0,385.743,0,248.5,111.257,0,248.5,0Z" fill="#72cb34"/>
  <g id="Group_389" data-name="Group 389">
    <g id="Group_379" data-name="Group 379">
      <path id="Path_670" data-name="Path 670" d="M393.969,103.044h-13.05V85.074a11.525,11.525,0,0,0-11.51-11.51h-93.34a11.328,11.328,0,0,0-4.09.79,11.569,11.569,0,0,0-7.42,10.72v17.97H109.029a16.446,16.446,0,0,0-16.43,16.42v225.99a16.446,16.446,0,0,0,16.43,16.42h72v26.11h-47.44a1.685,1.685,0,0,0,0,3.37h235.82a1.685,1.685,0,0,0,0-3.37h-47.45v-26.11h72.01a16.444,16.444,0,0,0,16.42-16.42V119.464A16.444,16.444,0,0,0,393.969,103.044Zm-126.04-17.97a8.147,8.147,0,0,1,8.14-8.14h93.34a8.147,8.147,0,0,1,8.14,8.14v147.38a8.147,8.147,0,0,1-8.14,8.14h-93.34a8.147,8.147,0,0,1-8.14-8.14Zm8.14,158.89h27.78v55.59h-26.83l-29.69-50a1.66,1.66,0,0,0-1.45-.7,1.643,1.643,0,0,0-1.44.7L233.6,267.8l-27.33-46.03a1.683,1.683,0,0,0-2.89,0l-43.55,73.34V135.894h104.73v96.56A11.519,11.519,0,0,0,276.069,243.964Zm-30.19,9.75,27.23,45.84h-54.45Zm-31.13,45.84h-53.64l43.72-73.62,26.81,45.17ZM95.969,135.894h27.79a8.156,8.156,0,0,1,8.15,8.14v27.79H95.969Zm0,39.3h35.94v35.93H95.969Zm0,39.3h35.94v35.94H95.969Zm0,39.31h35.94v27.79a8.156,8.156,0,0,1-8.15,8.14H95.969Zm222.62,134.18H184.4v-26.11h134.19Zm88.43-42.53a13.066,13.066,0,0,1-13.05,13.05H109.029a13.068,13.068,0,0,1-13.06-13.05v-13.06h311.05Zm0-16.42H95.969V293.1h27.79a11.534,11.534,0,0,0,11.52-11.51V144.034a11.527,11.527,0,0,0-11.52-11.51H95.969v-13.06a13.068,13.068,0,0,1,13.06-13.05h155.53v26.11H158.149a1.684,1.684,0,0,0-1.68,1.68v167.04a1.547,1.547,0,0,0,.21.73,2.029,2.029,0,0,1,.13.18,1.489,1.489,0,0,0,.42.41l.15.12a1.631,1.631,0,0,0,.77.24h147.38a1.686,1.686,0,0,0,1.69-1.68v-57.28h62.19a11.525,11.525,0,0,0,11.51-11.51V106.414h13.05a13.066,13.066,0,0,1,13.05,13.05Z" fill="#fff"/>
    </g>
    <g id="Group_380" data-name="Group 380">
      <path id="Path_671" data-name="Path 671" d="M254.409,345.454v.07a2.916,2.916,0,0,1-5.83.01v-.08a2.915,2.915,0,0,1,5.83,0Z" fill="#fff"/>
    </g>
    <g id="Group_381" data-name="Group 381">
      <path id="Path_672" data-name="Path 672" d="M234.839,172.754l-1.76-.13-.09-1.76a17.193,17.193,0,0,0-33.02-5.69l-.7,1.65-1.72-.51a9.953,9.953,0,0,0-2.89-.42,10.307,10.307,0,0,0-10.29,10.29,10.8,10.8,0,0,0,.14,1.69l.24,1.41-1.26.68a11.83,11.83,0,0,0,5.61,22.25h44.64a14.751,14.751,0,0,0,1.1-29.46Zm-1.1,26.09H189.1a8.461,8.461,0,0,1-1.61-16.77,1.677,1.677,0,0,0,1.21-.95,1.656,1.656,0,0,0-.06-1.53,6.918,6.918,0,0,1,6.02-10.33,6.808,6.808,0,0,1,4.65,1.8,1.687,1.687,0,0,0,2.81-1.03,13.363,13.363,0,0,1,1.25-4.11,13.791,13.791,0,0,1,26.27,5.91,14.206,14.206,0,0,1-.24,2.53,1.676,1.676,0,0,0,.48,1.52,1.635,1.635,0,0,0,1.5.45,11.379,11.379,0,1,1,2.36,22.51Z" fill="#fff"/>
    </g>
    <g id="Group_382" data-name="Group 382">
      <path id="Path_673" data-name="Path 673" d="M187.839,85.074a1.694,1.694,0,0,1-1.69,1.69h-57.47a1.685,1.685,0,0,1,0-3.37h57.47A1.686,1.686,0,0,1,187.839,85.074Z" fill="#fff"/>
    </g>
    <g id="Group_383" data-name="Group 383">
      <path id="Path_674" data-name="Path 674" d="M218.789,85.074a1.686,1.686,0,0,1-1.68,1.69h-11.3a1.685,1.685,0,1,1,0-3.37h11.3A1.677,1.677,0,0,1,218.789,85.074Z" fill="#fff"/>
    </g>
    <g id="Group_384" data-name="Group 384">
      <path id="Path_675" data-name="Path 675" d="M362.039,105.494h-52.38l-.36-1.56a13.951,13.951,0,0,0-27.55,2.99l.01.09c0,.06.01.13.01.2v.05a13.927,13.927,0,0,0,27.46,3.12l.38-1.53h52.43a1.68,1.68,0,0,0,0-3.36Zm-66.32,12.16a10.6,10.6,0,1,1,10.59-10.6A10.605,10.605,0,0,1,295.719,117.654Z" fill="#fff"/>
    </g>
    <g id="Group_385" data-name="Group 385">
      <path id="Path_676" data-name="Path 676" d="M362.039,139.884h-8.17l-.36-1.55a13.923,13.923,0,0,0-27.16,0l-.36,1.55h-42.56a1.685,1.685,0,0,0,0,3.37h42.61l.37,1.52a13.907,13.907,0,0,0,27.04,0l.37-1.52h8.22a1.685,1.685,0,0,0,0-3.37Zm-22.11,12.17a10.6,10.6,0,1,1,10.6-10.6A10.618,10.618,0,0,1,339.929,152.054Z" fill="#fff"/>
    </g>
    <g id="Group_386" data-name="Group 386">
      <path id="Path_677" data-name="Path 677" d="M362.039,174.274h-37.65l-.36-1.55a13.923,13.923,0,0,0-27.16,0l-.36,1.55h-13.08a1.685,1.685,0,0,0,0,3.37h13.13l.37,1.52a13.91,13.91,0,0,0,27.04,0l.37-1.52h37.7a1.685,1.685,0,0,0,0-3.37Zm-51.59,12.17a10.6,10.6,0,1,1,10.6-10.6A10.618,10.618,0,0,1,310.449,186.444Z" fill="#fff"/>
    </g>
    <g id="Group_387" data-name="Group 387">
      <path id="Path_678" data-name="Path 678" d="M349.759,196.274a13.9,13.9,0,0,0-13.59,10.85l-.35,1.55h-52.39a1.685,1.685,0,0,0,0,3.37h52.44l.37,1.52a13.927,13.927,0,0,0,27.46-3.12l.02-.35A13.976,13.976,0,0,0,349.759,196.274Zm0,24.56a10.6,10.6,0,1,1,10.59-10.6A10.605,10.605,0,0,1,349.759,220.834Z" fill="#fff"/>
    </g>
    <g id="Group_388" data-name="Group 388">
      <path id="Path_679" data-name="Path 679" d="M379.779,282.114l-49.13-16.86a1.7,1.7,0,0,0-.54-.09,1.747,1.747,0,0,0-1.2.49,1.684,1.684,0,0,0-.4,1.73l16.86,49.14a1.658,1.658,0,0,0,1.52,1.13,1.705,1.705,0,0,0,1.61-1l9.67-21.73,21.74-9.68a1.662,1.662,0,0,0,1-1.61A1.683,1.683,0,0,0,379.779,282.114Zm-23.57,9.99a1.716,1.716,0,0,0-.86.86l-8.19,18.41-14.35-41.81,41.82,14.34Z" fill="#fff"/>
    </g>
  </g>
  <line id="Line_1" data-name="Line 1" x2="78.255" transform="translate(15.344 276.634)" fill="none" stroke="#fff" stroke-linecap="round" stroke-miterlimit="10" stroke-width="4"/>
  <line id="Line_2" data-name="Line 2" x2="74.08" transform="translate(410.389 276.634)" fill="none" stroke="#fff" stroke-linecap="round" stroke-miterlimit="10" stroke-width="4"/>
  <path id="Path_680" data-name="Path 680" d="M139.469,389.594h-69v15.563" fill="none" stroke="#fff" stroke-linecap="round" stroke-linejoin="round" stroke-width="3"/>
  <path id="Path_681" data-name="Path 681" d="M365.969,389.594h60.375v15.563" fill="none" stroke="#fff" stroke-linecap="round" stroke-linejoin="round" stroke-width="3"/>
  <path id="Path_682" data-name="Path 682" d="M202.09,11.4,194.8,22.645a6.4,6.4,0,0,0,4.937,10.472H303.25A6.4,6.4,0,0,0,308.531,23.1l-6.858-10.018" fill="none" stroke="#fff" stroke-linecap="round" stroke-linejoin="round" stroke-width="3"/>
  <path id="Path_683" data-name="Path 683" d="M269.639,33.117a18.145,18.145,0,0,1-36.29,0" fill="none" stroke="#fff" stroke-miterlimit="10" stroke-width="3"/>
</svg>
