<?xml version="1.0" encoding="utf-8"?>
<!-- Generator: Adobe Illustrator 24.2.3, SVG Export Plug-In . SVG Version: 6.00 Build 0)  -->
<svg version="1.1" id="Logo" xmlns="http://www.w3.org/2000/svg" xmlns:xlink="http://www.w3.org/1999/xlink" x="0px" y="0px"
	 viewBox="0 0 1920 1080" style="enable-background:new 0 0 1920 1080;" xml:space="preserve">
<style type="text/css">
	.st0{fill:#72CB34;}
	.st1{fill:#232323;}
	.st2{fill:#FFFFFF;}
	.st3{fill:none;stroke:#72CB34;stroke-miterlimit:10;}
</style>
<g>
	<g>
		<path class="st0" d="M566.91,379.35c1.53-0.04,3.06-0.11,4.59-0.11c404.27,0,808.54,0,1212.81,0c1.15,0,2.3,0.06,3.44-0.01
			c1.64-0.1,2.33,0.61,2.23,2.24c-0.06,1.02-0.01,2.04-0.01,3.06c0,115.38,0,230.76-0.01,346.14c0,6.07,0.72,5.28-5.27,5.28
			c-404.52,0.01-809.05,0.01-1213.57,0.01c-1.4,0-2.8-0.07-4.2-0.11c0.55-0.68,1.06-1.42,1.67-2.04
			c10.31-10.48,19.55-21.85,27.66-34.1c37.64-56.85,50.77-118.98,39.56-186.17c-6.2-37.13-20.58-70.98-42.14-101.84
			C585.61,400.19,576.42,389.64,566.91,379.35z M899.86,575.2c-0.22,0.03-0.45,0.05-0.67,0.08c-1.83-21.81-3.66-43.62-5.5-65.43
			c-0.78-9.26-1.55-18.52-2.4-27.77c-0.18-1.9,0.08-4.06-3.17-4.02c-11.1,0.16-22.2,0.1-33.3,0.03c-2.1-0.01-2.86,0.74-3.11,2.82
			c-2.97,24.89-6.06,49.77-9.06,74.65c-3.45,28.55-6.8,57.11-10.35,85.65c-0.33,2.65,0.18,3.42,2.77,3.38
			c6.76-0.1,13.53-0.08,20.29-0.01c2.13,0.02,3.13-0.5,3.4-2.91c0.96-8.59,2.24-17.15,3.34-25.73c2.17-17.04,4.29-34.08,6.45-51.12
			c1.09-8.63,2.21-17.26,3.34-26.1c1.65,1.08,1.12,2.49,1.22,3.66c0.39,4.57,0.64,9.15,1.02,13.71c1.73,21.18,3.49,42.36,5.23,63.55
			c0.57,6.98,1.18,13.95,1.65,20.93c0.19,2.85,1.06,4.26,4.36,4.06c5.21-0.32,10.46-0.19,15.69-0.04c2.37,0.07,3.33-0.86,3.96-3.06
			c6.94-24.48,13.96-48.93,20.96-73.39c2.86-9.99,5.73-19.97,8.59-29.95c0.43,1.22,0.51,2.34,0.42,3.45
			c-0.69,8.37-1.41,16.73-2.13,25.1c-1.18,13.82-2.39,27.64-3.53,41.46c-0.91,11.04-1.71,22.08-2.62,33.12
			c-0.18,2.14,0.16,3.32,2.75,3.27c6.76-0.14,13.53-0.08,20.29-0.03c1.98,0.02,2.95-0.51,3.12-2.76c0.56-7.49,1.42-14.95,2.08-22.43
			c1.89-21.68,3.68-43.37,5.61-65.05c2.16-24.34,4.42-48.66,6.7-72.99c0.23-2.48-0.42-3.34-3.03-3.3
			c-10.46,0.13-20.93,0.14-31.39-0.01c-2.47-0.04-3.25,0.98-3.89,3.1c-3.21,10.72-6.56,21.41-9.87,32.1
			C912.65,533.91,906.25,554.56,899.86,575.2z M1196.96,478.13c-7.53,0-15.06,0.18-22.57-0.08c-3.52-0.12-4.82,0.81-5.04,4.53
			c-0.51,8.37-1.6,16.71-2.48,25.06c-1.68,15.94-3.37,31.87-5.06,47.81c-1.67,15.81-3.32,31.62-5,47.43
			c-1.36,12.9-2.71,25.8-4.15,38.69c-0.27,2.41,0.58,3.08,2.92,3.05c10.08-0.1,20.15-0.1,30.23,0c2.29,0.02,3.24-0.82,3.4-3.02
			c0.21-2.92,0.54-5.83,0.84-8.74c1.99-18.84,3.93-37.69,6-56.53c0.72-6.53,0.88-6.37,7.66-6.48c2.66-0.04,3.55,0.99,3.91,3.38
			c1.24,8.04,2.59,16.07,3.93,24.09c2.45,14.67,4.96,29.33,7.33,44.02c0.36,2.26,1.07,3.31,3.56,3.28
			c10.08-0.12,20.15-0.09,30.23-0.02c2.23,0.02,3.02-0.76,2.56-2.94c-0.63-2.99-1.14-6-1.76-8.98
			c-4.47-21.53-8.92-43.07-13.47-64.58c-0.62-2.95,0.11-4.53,2.92-5.96c7.99-4.08,13.69-10.44,17.21-18.74
			c4.19-9.89,5.99-20.27,5.58-30.93c-0.4-10.31-3.6-19.58-12.54-25.82c-5.86-4.09-12.6-5.99-19.59-7.07
			C1221.44,477.7,1209.19,478.19,1196.96,478.13z M1435.41,560.07c1.41,0.52,1.22,1.42,1.42,2.09
			c7.83,26.34,15.68,52.67,23.39,79.04c0.74,2.52,1.68,3.54,4.39,3.44c5.48-0.21,11-0.41,16.45,0.05c4.06,0.35,4.91-1.44,5.25-4.84
			c2.75-26.83,5.61-53.65,8.41-80.48c2.74-26.19,5.43-52.39,8.23-78.57c0.22-2.08-0.25-2.72-2.31-2.7
			c-8.42,0.07-16.84,0.08-25.26-0.01c-2-0.02-2.66,0.72-2.76,2.65c-0.18,3.43-0.57,6.85-0.93,10.26
			c-1.97,18.72-3.95,37.45-5.94,56.17c-0.34,3.18-0.76,6.35-1.15,9.52c-1.14-1.17-1.58-2.33-1.97-3.51
			c-7.72-23.85-15.46-47.68-23.08-71.56c-0.82-2.58-1.92-3.67-4.78-3.56c-6.11,0.24-12.25,0.25-18.37,0
			c-2.87-0.12-3.81,0.97-4.06,3.56c-1,10.26-2.11,20.5-3.17,30.76c-2.12,20.63-4.2,41.26-6.37,61.89
			c-2.37,22.52-4.8,45.04-7.27,67.55c-0.22,2.05,0.45,2.79,2.44,2.78c8.68-0.04,17.35-0.03,26.03-0.01c1.65,0,2.53-0.5,2.72-2.35
			c1.47-14.43,3.03-28.85,4.56-43.27C1432.67,586.08,1434.03,573.19,1435.41,560.07z M1056.65,478.13
			c-10.95,0-20.01,0.08-29.07-0.05c-2.61-0.04-3.48,0.78-3.69,3.43c-0.64,8.12-1.59,16.21-2.44,24.31
			c-1.71,16.2-3.42,32.39-5.14,48.58c-1.66,15.69-3.34,31.38-4.99,47.07c-1.39,13.16-2.71,26.33-4.19,39.47
			c-0.33,2.89,0.54,3.75,3.46,3.7c9.57-0.17,19.14-0.18,28.71,0.01c2.89,0.06,4.07-0.79,4.34-3.67c1.01-10.77,2.19-21.52,3.29-32.28
			c1.09-10.63,2.21-21.26,3.24-31.9c0.24-2.5,1.31-3.36,3.91-3.3c7.26,0.19,14.54,0.23,21.78-0.63c17.32-2.06,30.7-9.57,37.35-26.64
			c4.48-11.52,5.87-23.47,4.82-35.65c-1.63-18.85-13.06-30.08-31.52-31.88C1075.91,477.67,1065.33,478.5,1056.65,478.13z
			 M1591.55,478.13c-13.52,0-27.04,0.05-40.57-0.04c-2.34-0.02-3.33,0.5-3.52,3.08c-0.51,6.84-1.3,13.67-2.14,20.49
			c-0.35,2.82,0.4,3.87,3.41,3.76c6.12-0.21,12.25,0.06,18.37-0.11c2.84-0.08,3.63,0.53,3.26,3.63
			c-1.85,15.66-3.37,31.36-5.02,47.05c-1.43,13.53-2.88,27.06-4.32,40.6c-1.59,15.05-3.17,30.11-4.78,45.16
			c-0.19,1.78,0.02,2.89,2.28,2.87c10.46-0.08,20.92-0.06,31.38-0.01c1.93,0.01,2.69-0.74,2.87-2.65
			c0.98-10.13,2.07-20.25,3.11-30.37c1.62-15.69,3.2-31.38,4.86-47.07c1.95-18.47,4.03-36.92,5.84-55.4c0.29-3,1.28-3.9,4.19-3.81
			c6.25,0.18,12.5,0.06,18.75,0.05c1.56,0,3.01,0.09,3.22-2.2c0.66-7.22,1.42-14.43,2.3-21.63c0.34-2.77-0.65-3.46-3.31-3.44
			C1618.33,478.19,1604.94,478.13,1591.55,478.13z M776.86,478.13c-4.97,0-9.95,0.12-14.92-0.05c-2.58-0.08-3.57,0.71-3.73,3.39
			c-0.37,5.83-1.09,11.65-1.7,17.46c-1.7,16.19-3.42,32.37-5.14,48.55c-1.66,15.68-3.33,31.36-4.99,47.04
			c-1.64,15.55-3.25,31.11-4.96,46.66c-0.3,2.74,0.64,3.49,3.32,3.45c9.05-0.14,18.11-0.05,27.16-0.05c5.52,0,5.55,0,6.12-5.37
			c2.83-26.81,5.66-53.62,8.44-80.43c2.69-25.93,5.28-51.87,8.09-77.78c0.3-2.76-0.64-2.94-2.78-2.9
			C786.81,478.19,781.84,478.13,776.86,478.13z M1321.9,644.58c4.21,0,8.42,0,12.62,0c5.71,0,5.7,0,6.29-5.59
			c2.56-24.41,5.14-48.81,7.67-73.23c2.93-28.21,5.76-56.42,8.79-84.61c0.26-2.46-0.12-3.09-2.57-3.06
			c-10.07,0.11-20.15,0.11-30.22,0c-2.43-0.03-3.28,0.75-3.49,3.22c-0.68,8.24-1.63,16.45-2.49,24.67
			c-1.69,16.06-3.4,32.12-5.1,48.18c-1.67,15.81-3.35,31.61-5.02,47.42c-1.38,13.02-2.67,26.06-4.17,39.07
			c-0.39,3.34,0.77,4.17,3.92,4C1312.71,644.4,1317.31,644.58,1321.9,644.58z"/>
		<path class="st1" d="M899.86,575.2c6.4-20.64,12.79-41.29,19.19-61.93c3.31-10.69,6.66-21.38,9.87-32.1
			c0.63-2.12,1.42-3.14,3.89-3.1c10.46,0.15,20.93,0.14,31.39,0.01c2.61-0.03,3.27,0.83,3.03,3.3c-2.28,24.33-4.53,48.65-6.7,72.99
			c-1.93,21.68-3.72,43.37-5.61,65.05c-0.65,7.48-1.51,14.94-2.08,22.43c-0.17,2.25-1.14,2.77-3.12,2.76
			c-6.76-0.05-13.53-0.11-20.29,0.03c-2.59,0.05-2.93-1.12-2.75-3.27c0.91-11.04,1.71-22.08,2.62-33.12
			c1.14-13.82,2.35-27.64,3.53-41.46c0.71-8.37,1.44-16.73,2.13-25.1c0.09-1.11,0.01-2.23-0.42-3.45
			c-2.86,9.98-5.73,19.97-8.59,29.95c-7,24.46-14.03,48.91-20.96,73.39c-0.62,2.2-1.59,3.13-3.96,3.06
			c-5.23-0.16-10.48-0.28-15.69,0.04c-3.29,0.2-4.16-1.21-4.36-4.06c-0.47-6.98-1.08-13.96-1.65-20.93
			c-1.74-21.18-3.5-42.36-5.23-63.55c-0.37-4.57-0.63-9.15-1.02-13.71c-0.1-1.17,0.44-2.58-1.22-3.66
			c-1.13,8.84-2.25,17.47-3.34,26.1c-2.15,17.04-4.27,34.08-6.45,51.12c-1.09,8.58-2.38,17.14-3.34,25.73
			c-0.27,2.4-1.28,2.93-3.4,2.91c-6.76-0.08-13.53-0.1-20.29,0.01c-2.59,0.04-3.1-0.73-2.77-3.38c3.55-28.54,6.9-57.1,10.35-85.65
			c3.01-24.89,6.09-49.76,9.06-74.65c0.25-2.08,1.01-2.84,3.11-2.82c11.1,0.07,22.21,0.13,33.3-0.03c3.25-0.05,3,2.11,3.17,4.02
			c0.85,9.25,1.62,18.51,2.4,27.77c1.84,21.81,3.67,43.62,5.5,65.43C899.41,575.25,899.63,575.23,899.86,575.2z"/>
		<path class="st1" d="M1196.96,478.13c12.23,0.06,24.48-0.43,36.63,1.45c6.98,1.08,13.73,2.98,19.59,7.07
			c8.93,6.24,12.14,15.51,12.54,25.82c0.41,10.66-1.39,21.03-5.58,30.93c-3.51,8.3-9.22,14.65-17.21,18.74
			c-2.81,1.43-3.54,3.02-2.92,5.96c4.55,21.51,9,43.05,13.47,64.58c0.62,2.99,1.14,6,1.76,8.98c0.46,2.18-0.34,2.96-2.56,2.94
			c-10.08-0.07-20.15-0.1-30.23,0.02c-2.49,0.03-3.2-1.02-3.56-3.28c-2.37-14.68-4.88-29.35-7.33-44.02
			c-1.34-8.03-2.69-16.05-3.93-24.09c-0.37-2.38-1.25-3.42-3.91-3.38c-6.79,0.11-6.95-0.06-7.66,6.48
			c-2.07,18.84-4.02,37.68-6,56.53c-0.31,2.91-0.63,5.82-0.84,8.74c-0.16,2.19-1.11,3.04-3.4,3.02c-10.08-0.1-20.15-0.1-30.23,0
			c-2.34,0.02-3.19-0.64-2.92-3.05c1.44-12.89,2.78-25.79,4.15-38.69c1.67-15.81,3.33-31.62,5-47.43
			c1.68-15.94,3.38-31.87,5.06-47.81c0.88-8.35,1.96-16.68,2.48-25.06c0.23-3.72,1.52-4.65,5.04-4.53
			C1181.9,478.31,1189.43,478.13,1196.96,478.13z M1211.46,502.45c0,0.06-0.01,0.11-0.01,0.17c-1.65,0-3.32,0.12-4.96-0.03
			c-2.34-0.21-3.04,0.87-3.26,3.06c-1.17,11.87-2.48,23.73-3.74,35.59c-0.82,7.72-0.82,7.72,6.82,7.71c1.02,0,2.04,0.04,3.05-0.01
			c8.49-0.38,15.39-3.4,18.88-11.73c2.85-6.82,3.76-14.02,2.93-21.29c-0.94-8.31-4.26-11.54-12.51-12.88
			C1216.29,502.65,1213.86,502.64,1211.46,502.45z"/>
		<path class="st1" d="M1435.41,560.07c-1.39,13.12-2.75,26-4.11,38.89c-1.53,14.42-3.09,28.84-4.56,43.27
			c-0.19,1.85-1.07,2.36-2.72,2.35c-8.68-0.02-17.35-0.03-26.03,0.01c-2,0.01-2.67-0.74-2.44-2.78c2.47-22.51,4.9-45.02,7.27-67.55
			c2.17-20.62,4.24-41.26,6.37-61.89c1.06-10.25,2.16-20.5,3.17-30.76c0.25-2.6,1.19-3.68,4.06-3.56c6.11,0.26,12.25,0.24,18.37,0
			c2.86-0.11,3.96,0.98,4.78,3.56c7.62,23.88,15.36,47.71,23.08,71.56c0.38,1.18,0.83,2.35,1.97,3.51c0.38-3.17,0.81-6.34,1.15-9.52
			c1.99-18.72,3.97-37.44,5.94-56.17c0.36-3.42,0.75-6.84,0.93-10.26c0.1-1.92,0.76-2.67,2.76-2.65c8.42,0.08,16.84,0.08,25.26,0.01
			c2.06-0.02,2.53,0.62,2.31,2.7c-2.8,26.18-5.49,52.38-8.23,78.57c-2.8,26.83-5.67,53.65-8.41,80.48
			c-0.35,3.39-1.19,5.18-5.25,4.84c-5.45-0.47-10.97-0.26-16.45-0.05c-2.71,0.1-3.66-0.92-4.39-3.44
			c-7.71-26.37-15.56-52.7-23.39-79.04C1436.64,561.49,1436.83,560.59,1435.41,560.07z"/>
		<path class="st1" d="M1056.65,478.13c8.68,0.36,19.26-0.46,29.84,0.57c18.46,1.8,29.9,13.03,31.52,31.88
			c1.05,12.18-0.33,24.13-4.82,35.65c-6.64,17.07-20.03,24.58-37.35,26.64c-7.24,0.86-14.52,0.82-21.78,0.63
			c-2.59-0.07-3.66,0.8-3.91,3.3c-1.04,10.64-2.15,21.27-3.24,31.9c-1.11,10.76-2.28,21.51-3.29,32.28
			c-0.27,2.87-1.45,3.72-4.34,3.67c-9.57-0.19-19.14-0.18-28.71-0.01c-2.93,0.05-3.79-0.8-3.46-3.7c1.48-13.15,2.8-26.32,4.19-39.47
			c1.66-15.69,3.33-31.38,4.99-47.07c1.72-16.19,3.44-32.39,5.14-48.58c0.85-8.1,1.81-16.19,2.44-24.31
			c0.21-2.65,1.08-3.47,3.69-3.43C1036.63,478.21,1045.69,478.13,1056.65,478.13z M1067.23,503.95c-2.46,0-4.5,0.09-6.53-0.03
			c-2-0.12-2.88,0.43-3.1,2.67c-1.27,13.01-2.68,26.01-4.18,39c-0.26,2.28,0.75,2.64,2.55,2.59c4.57-0.12,9.15,0.23,13.71-0.48
			c5.52-0.86,9.38-3.62,11.28-8.96c2.78-7.78,3.66-15.84,3.19-24c-0.34-5.89-3.23-8.87-8.99-10.32
			C1072.41,503.73,1069.6,504.06,1067.23,503.95z"/>
		<path class="st1" d="M1591.55,478.13c13.39,0,26.79,0.06,40.18-0.05c2.66-0.02,3.65,0.67,3.31,3.44
			c-0.88,7.2-1.63,14.41-2.3,21.63c-0.21,2.29-1.66,2.2-3.22,2.2c-6.25,0.01-12.5,0.13-18.75-0.05c-2.91-0.08-3.9,0.81-4.19,3.81
			c-1.81,18.48-3.9,36.93-5.84,55.4c-1.65,15.69-3.24,31.38-4.86,47.07c-1.04,10.12-2.13,20.24-3.11,30.37
			c-0.19,1.91-0.95,2.66-2.87,2.65c-10.46-0.05-20.92-0.07-31.38,0.01c-2.27,0.02-2.47-1.09-2.28-2.87
			c1.61-15.05,3.18-30.11,4.78-45.16c1.43-13.53,2.89-27.06,4.32-40.6c1.65-15.69,3.18-31.39,5.02-47.05
			c0.37-3.1-0.42-3.71-3.26-3.63c-6.12,0.17-12.25-0.09-18.37,0.11c-3,0.1-3.76-0.95-3.41-3.76c0.85-6.81,1.63-13.64,2.14-20.49
			c0.19-2.58,1.19-3.09,3.52-3.08C1564.5,478.18,1578.02,478.13,1591.55,478.13z"/>
		<path class="st1" d="M776.86,478.13c4.97,0,9.95,0.06,14.92-0.03c2.14-0.04,3.08,0.14,2.78,2.9c-2.81,25.91-5.4,51.85-8.09,77.78
			c-2.79,26.81-5.62,53.62-8.44,80.43c-0.57,5.37-0.6,5.37-6.12,5.37c-9.05,0-18.11-0.09-27.16,0.05c-2.67,0.04-3.62-0.71-3.32-3.45
			c1.71-15.55,3.31-31.1,4.96-46.66c1.66-15.68,3.32-31.36,4.99-47.04c1.71-16.18,3.43-32.37,5.14-48.55
			c0.61-5.82,1.34-11.63,1.7-17.46c0.17-2.68,1.15-3.48,3.73-3.39C766.91,478.25,771.89,478.13,776.86,478.13z"/>
		<path class="st1" d="M1321.9,644.58c-4.59,0-9.19-0.18-13.77,0.06c-3.14,0.17-4.3-0.66-3.92-4c1.5-13.01,2.79-26.04,4.17-39.07
			c1.67-15.81,3.35-31.61,5.02-47.42c1.7-16.06,3.41-32.12,5.1-48.18c0.87-8.22,1.81-16.43,2.49-24.67
			c0.21-2.47,1.06-3.25,3.49-3.22c10.07,0.1,20.15,0.11,30.22,0c2.45-0.03,2.83,0.6,2.57,3.06c-3.03,28.19-5.86,56.41-8.79,84.61
			c-2.53,24.41-5.11,48.82-7.67,73.23c-0.59,5.59-0.58,5.59-6.29,5.59C1330.32,644.58,1326.11,644.58,1321.9,644.58z"/>
		<path class="st0" d="M1211.46,502.45c2.4,0.19,4.83,0.2,7.2,0.59c8.25,1.34,11.57,4.56,12.51,12.88
			c0.82,7.28-0.08,14.48-2.93,21.29c-3.48,8.33-10.39,11.35-18.88,11.73c-1.02,0.05-2.04,0.01-3.05,0.01c-7.64,0-7.64,0-6.82-7.71
			c1.26-11.86,2.56-23.72,3.74-35.59c0.22-2.19,0.92-3.27,3.26-3.06c1.64,0.15,3.31,0.03,4.96,0.03
			C1211.45,502.56,1211.45,502.51,1211.46,502.45z"/>
		<path class="st0" d="M1067.23,503.95c2.37,0.11,5.18-0.23,7.94,0.47c5.76,1.45,8.65,4.43,8.99,10.32c0.46,8.17-0.42,16.23-3.19,24
			c-1.91,5.34-5.77,8.1-11.28,8.96c-4.57,0.71-9.14,0.36-13.71,0.48c-1.8,0.05-2.81-0.31-2.55-2.59c1.49-12.99,2.9-25.99,4.18-39
			c0.22-2.24,1.11-2.79,3.1-2.67C1062.73,504.05,1064.77,503.95,1067.23,503.95z"/>
	</g>
	<circle class="st1" cx="385.5" cy="557.6" r="255.48"/>
	<g>
		<path class="st2" d="M621.47,561.17c0.48,109.54-73.78,202.95-180.92,226.72c-108.58,24.09-210.83-29.11-258.51-111.24
			c-22.33-38.46-33.33-79.81-32.46-124.4c2-102.35,71.72-193.31,170.03-221.42c103.49-29.59,211.34,12.47,266.87,104.47
			C609.77,473.92,621.63,515.93,621.47,561.17z M535.35,717.47c-1.71-0.88-3.06-1.58-4.41-2.28c-10.78-5.58-20.02-13.06-27.31-22.78
			c-2.78-3.71-5.31-7.68-7.5-11.77c-1.84-3.42-1.35-7.03,1.23-10.08c2.39-2.83,5.55-3.88,9.17-3.15c3.41,0.69,5.43,3.12,7.09,6.01
			c7.37,12.86,18.01,21.99,31.7,27.6c4.13,1.69,4.66,1.59,7.46-1.78c32.31-38.88,48.81-83.68,49.81-134.15
			c0.49-25.06-3.18-49.59-11-73.43C555.95,383.17,445.86,318.7,331.63,347.23C227.64,373.19,150.94,478.07,171.9,595.95
			c5.95,33.45,19.26,63.64,39.68,90.68c6.36,8.42,13.53,16.21,20.4,24.37c3.51-2.37,6.41-4.29,9.27-6.27
			c41.67-28.82,78.93-62.4,110.3-102.32c9.92-12.63,18.68-26.04,26.55-40.04c2.58-4.58,7.81-6.18,12.3-4.04
			c4.54,2.16,6.57,7.51,4.54,12.37c-0.86,2.05-2,3.99-3.11,5.93c-15.46,26.76-34.86,50.5-56.09,72.79
			c-26.04,27.34-55.09,51.15-86.14,72.56c-0.9,0.62-1.76,1.28-2.82,2.06c7.61,5.52,14.82,10.77,22.12,16.07
			c0.9-0.65,1.7-1.19,2.45-1.79c29.29-23.3,57.93-47.37,85.26-72.96c15.98-14.96,31.57-30.28,44.97-47.67
			c8.16-10.58,14.62-21.98,17.06-35.33c2.66-14.58-0.2-27.61-10.75-38.48c-5.39-5.55-11.98-8.1-19.71-7.65
			c-10.96,0.63-19.84,5.58-27.41,13.24c-9.07,9.18-16.57,19.57-23.22,30.58c-7.49,12.42-15.43,24.5-24.83,35.57
			c-23.57,27.76-52.53,48.88-83.45,67.57c-4.74,2.87-10.33,1.37-12.98-3.08c-2.78-4.67-1.33-10.03,3.44-13.13
			c8.47-5.5,16.98-10.94,25.33-16.62c31.87-21.67,58.51-48.27,77.57-82.11c5.87-10.43,13.22-19.9,21.4-28.68
			c8.53-9.15,18.03-16.8,30.47-20.08c19.07-5.03,36.01-1.85,49.25,13.55c12.97,15.08,17.19,32.73,13.61,52.26
			c-3.14,17.16-10.95,32.21-22.03,45.38c-10.44,12.4-21.3,24.51-32.81,35.92c-29.15,28.91-60.55,55.31-92.5,81.05
			c-1.01,0.81-1.98,1.67-3.21,2.71c7.33,3.25,14.14,6.27,20.92,9.28c5.71-7.05,11.13-14.04,16.86-20.76
			c8.03-9.41,17.3-17.35,28.87-22.16c14.65-6.09,28.83-2.83,39.46,8.95c5.2,5.76,9.27,12.31,11.97,19.53
			c3.1,8.26,5.69,16.72,8.28,25.16c0.69,2.25,1.62,2.88,3.89,2.45c6.77-1.3,13.6-2.28,20.34-3.68c4.93-1.02,9.77-2.51,15.05-3.9
			c-1.49-1.39-2.52-2.27-3.45-3.25c-27.67-28.8-40.52-63.37-39.95-103.11c0.09-6.17,4.23-10.19,9.8-9.96
			c5.52,0.23,8.8,4.33,9.04,10.42c0.32,7.94,0.44,15.97,1.74,23.78c4.84,29.01,18.03,53.51,40.51,72.79
			c1.66,1.42,3.09,1.86,5.22,0.91c12.37-5.51,24.18-11.99,35.35-19.65c0.66-0.45,1.24-1.03,1.99-1.65c-0.71-0.5-1.09-0.79-1.5-1.05
			c-19.98-12.66-34.34-30.1-43.91-51.62c-11.02-24.79-14.65-50.96-14.68-77.85c-0.02-13,2.56-25.67,4-38.5
			c2.38-21.3-4.56-39.05-21.63-52.39c-10.91-8.54-23.49-13.58-36.92-16.54c-18.69-4.12-35.87-0.49-51.47,10.53
			c-9.87,6.98-18.05,15.65-24.8,25.64c-2.98,4.42-5.94,8.95-8.13,13.78c-8.24,18.12-20.57,33.1-34.95,46.55
			c-14.99,14.01-31.73,25.61-49.74,35.4c-4.9,2.66-10.1,1.21-12.88-3.45c-2.48-4.15-1.15-9.56,3.15-12.53
			c1.43-0.99,3.03-1.75,4.49-2.71c9.16-6.03,18.67-11.61,27.37-18.25c19.37-14.76,35.68-32.13,46.29-54.57
			c7.94-16.8,19.65-30.96,34.4-42.44c13.18-10.26,27.88-17,44.68-18.15c24.09-1.64,45.93,5.23,65.71,18.72
			c24.29,16.57,35.47,39.72,33.45,69.06c-0.43,6.28-1.5,12.52-2.43,18.76c-2.74,18.43-2.15,36.82,0.82,55.14
			c2.93,18.09,8.42,35.3,18.48,50.83c8.63,13.31,19.76,23.93,33.8,31.38c1.17,0.62,3.09,0.86,4.19,0.32
			C532.24,720.72,533.57,719.05,535.35,717.47z M394.36,774.16c-0.07-0.54-0.06-1.13-0.23-1.66c-2-6.19-3.88-12.42-6.08-18.53
			c-2.29-6.36-5.62-12.17-10.5-16.95c-4.38-4.28-9.48-5.52-15.26-3.38c-2.08,0.77-4.17,1.66-6.07,2.8
			c-12.07,7.3-20.75,17.96-28.94,29.17C337.33,770.72,383.59,776.59,394.36,774.16z"/>
		<path class="st2" d="M388.81,437.07c63.76,0.62,108.5,39.14,123.43,98.4c0.62,2.45,1.13,4.92,1.55,7.41
			c1.03,6.12-2,11.05-7.3,12.04c-5.76,1.07-10.27-2.39-11.49-8.76c-4.75-24.75-15.62-46.29-34.13-63.59
			c-15.65-14.63-34.66-22.32-55.66-25.13c-46.9-6.27-83.37,12-111.85,48.34c-4.05,5.17-7.51,10.89-10.64,16.67
			c-12.31,22.76-30.6,39.15-53.37,50.87c-5.4,2.78-10.72,1.27-13.34-3.53c-2.62-4.8-0.85-9.86,4.25-13.19
			c8.03-5.25,16.31-10.22,23.8-16.17c9.76-7.75,17.05-17.74,22.83-28.81C290.42,466.48,338.07,437.36,388.81,437.07z"/>
		<path class="st2" d="M391.02,397.08c34.49,0.43,68.62,10.05,98.9,31.89c18.41,13.28,33.17,29.83,44.21,49.66
			c0.98,1.77,1.89,3.65,2.42,5.59c1.32,4.85-0.85,9.21-5.22,11.02c-4.45,1.85-9.34,0.25-11.94-3.89
			c-3.61-5.75-6.92-11.73-10.89-17.22c-20.43-28.29-48.38-45.28-81.92-53.38c-50.4-12.18-95.37-0.88-135.25,31.91
			c-19.64,16.15-35.83,35.24-49.07,56.89c-2.97,4.86-6.5,6.63-11.04,5.62c-6.18-1.37-9.5-8.26-6.2-13.65
			c24.47-40.03,56.07-72.37,99.68-91.56C345.02,401.03,366.37,397.09,391.02,397.08z"/>
		<path class="st2" d="M389.14,355.66c46.28,1.22,86.6,15.27,121.55,43.99c3.07,2.52,5.95,5.3,8.78,8.1
			c4.91,4.86,5.28,10.46,1.1,14.58c-4.09,4.04-9.6,3.64-14.43-1.04c-24.34-23.6-53.71-37.38-86.69-43.67
			c-37.94-7.24-73.98-1.12-108.24,16.48c-19.31,9.92-36.98,22.13-52.87,36.92c-1.53,1.42-3.33,2.78-5.26,3.5
			c-4.04,1.5-8.52-0.41-10.81-4.16c-2.23-3.66-1.85-8.37,1.44-11.51c4.77-4.56,9.61-9.09,14.78-13.2
			c27.33-21.73,57.4-38.07,91.73-45.83C363.44,356.82,376.84,355.43,389.14,355.66z"/>
		<path class="st2" d="M558.49,574.07c-0.53,28.33-6.13,55.62-15.34,82.24c-1.87,5.4-7,7.96-12.05,6.27
			c-5.24-1.76-7.73-6.83-5.87-12.45c4.87-14.68,8.92-29.56,11.26-44.87c3.88-25.46,3.8-50.73-3.8-75.6
			c-0.91-2.96-2.11-5.84-3.3-8.71c-2.33-5.63-0.51-11.06,4.53-13.3c5.07-2.24,10.26-0.03,12.87,5.57
			c4.97,10.67,7.66,22.01,9.18,33.59C557.16,555.86,557.68,564.98,558.49,574.07z"/>
		<path class="st2" d="M518.48,597.19c-0.15,17.73-5.04,34.11-13.91,49.36c-2.81,4.83-7.48,6.57-12.12,4.72
			c-5.65-2.25-7.35-8.13-4.5-14.13c3.07-6.47,6.27-12.96,8.48-19.74c3.73-11.4,3.71-23.13,1.08-34.84c-0.3-1.33-0.62-2.66-0.76-4.01
			c-0.56-5.18,2.52-9.63,7.36-10.73c4.74-1.07,9.51,1.43,10.97,6.39c1.33,4.54,2.14,9.26,2.87,13.95
			C518.41,591.14,518.32,594.18,518.48,597.19z"/>
	</g>
</g>
<g>
	<path class="st3" d="M1078.53-822.13c0.48,109.54-73.78,202.95-180.92,226.72c-108.58,24.09-210.83-29.11-258.51-111.24
		c-22.33-38.46-33.33-79.81-32.46-124.4c2-102.35,71.72-193.31,170.03-221.42C880.16-1082.06,988-1040,1043.53-948
		C1066.83-909.39,1078.69-867.38,1078.53-822.13z M992.42-665.83c-1.71-0.88-3.06-1.58-4.41-2.28
		c-10.78-5.58-20.02-13.06-27.31-22.78c-2.78-3.71-5.31-7.68-7.5-11.77c-1.84-3.42-1.35-7.03,1.23-10.08
		c2.39-2.83,5.55-3.88,9.17-3.15c3.41,0.69,5.43,3.12,7.09,6.01c7.37,12.86,18.01,21.99,31.7,27.6c4.13,1.69,4.66,1.59,7.46-1.78
		c32.31-38.88,48.81-83.68,49.81-134.15c0.49-25.06-3.18-49.59-11-73.43c-35.63-108.51-145.72-172.98-259.95-144.46
		c-103.99,25.96-180.68,130.84-159.73,248.72c5.95,33.45,19.26,63.64,39.68,90.68c6.36,8.42,13.53,16.21,20.4,24.37
		c3.51-2.37,6.41-4.29,9.27-6.27c41.67-28.82,78.93-62.4,110.3-102.32c9.92-12.63,18.68-26.04,26.55-40.04
		c2.58-4.58,7.81-6.18,12.3-4.04c4.54,2.16,6.57,7.51,4.54,12.37c-0.86,2.05-2,3.99-3.11,5.93c-15.46,26.76-34.86,50.5-56.09,72.79
		c-26.04,27.34-55.09,51.15-86.14,72.56c-0.9,0.62-1.76,1.28-2.82,2.06c7.61,5.52,14.82,10.77,22.12,16.07
		c0.9-0.65,1.7-1.19,2.45-1.79c29.29-23.3,57.93-47.37,85.26-72.96c15.98-14.96,31.57-30.28,44.97-47.67
		c8.16-10.58,14.62-21.98,17.06-35.33c2.66-14.58-0.2-27.61-10.75-38.48c-5.39-5.55-11.98-8.1-19.71-7.65
		c-10.96,0.63-19.84,5.58-27.41,13.24c-9.07,9.18-16.57,19.57-23.22,30.58c-7.49,12.42-15.43,24.5-24.83,35.57
		c-23.57,27.76-52.53,48.88-83.45,67.57c-4.74,2.87-10.33,1.37-12.98-3.08c-2.78-4.67-1.33-10.03,3.44-13.13
		c8.47-5.5,16.98-10.94,25.33-16.62c31.87-21.67,58.51-48.27,77.57-82.11c5.87-10.43,13.22-19.9,21.4-28.68
		c8.53-9.15,18.03-16.8,30.47-20.08c19.07-5.03,36.01-1.85,49.25,13.55c12.97,15.08,17.19,32.73,13.61,52.26
		c-3.14,17.16-10.95,32.21-22.03,45.38c-10.44,12.4-21.3,24.51-32.81,35.92c-29.15,28.91-60.55,55.31-92.5,81.05
		c-1.01,0.81-1.98,1.67-3.21,2.71c7.33,3.25,14.14,6.27,20.92,9.28c5.71-7.05,11.13-14.04,16.86-20.76
		c8.03-9.41,17.3-17.35,28.87-22.16c14.65-6.09,28.83-2.83,39.46,8.95c5.2,5.76,9.27,12.31,11.97,19.53
		c3.1,8.26,5.69,16.72,8.28,25.16c0.69,2.25,1.62,2.88,3.89,2.45c6.77-1.3,13.6-2.28,20.34-3.68c4.93-1.02,9.77-2.51,15.05-3.9
		c-1.49-1.39-2.52-2.27-3.45-3.25c-27.67-28.8-40.52-63.37-39.95-103.11c0.09-6.17,4.23-10.19,9.8-9.96
		c5.52,0.23,8.8,4.33,9.04,10.42c0.32,7.94,0.44,15.97,1.74,23.78c4.84,29.01,18.03,53.51,40.51,72.79
		c1.66,1.42,3.09,1.86,5.22,0.91c12.37-5.51,24.18-11.99,35.35-19.65c0.66-0.45,1.24-1.03,1.99-1.65c-0.71-0.5-1.09-0.79-1.5-1.05
		c-19.98-12.66-34.34-30.1-43.91-51.62c-11.02-24.79-14.65-50.96-14.68-77.85c-0.02-13,2.56-25.67,4-38.5
		c2.38-21.3-4.56-39.05-21.63-52.39c-10.91-8.54-23.49-13.58-36.92-16.54c-18.69-4.12-35.87-0.49-51.47,10.53
		c-9.87,6.98-18.05,15.65-24.8,25.64c-2.98,4.42-5.94,8.95-8.13,13.78c-8.24,18.12-20.57,33.1-34.95,46.55
		c-14.99,14.01-31.73,25.61-49.74,35.4c-4.9,2.66-10.1,1.21-12.88-3.45c-2.48-4.15-1.15-9.56,3.15-12.53
		c1.43-0.99,3.03-1.75,4.49-2.71c9.16-6.03,18.67-11.61,27.37-18.25c19.37-14.76,35.68-32.13,46.29-54.57
		c7.94-16.8,19.65-30.96,34.4-42.44c13.18-10.26,27.88-17,44.68-18.15c24.09-1.64,45.93,5.23,65.71,18.72
		c24.29,16.57,35.47,39.72,33.45,69.06c-0.43,6.28-1.5,12.52-2.43,18.76c-2.74,18.43-2.15,36.82,0.82,55.14
		c2.93,18.09,8.42,35.3,18.48,50.83c8.63,13.31,19.76,23.93,33.8,31.38c1.17,0.62,3.09,0.86,4.19,0.32
		C989.3-662.59,990.63-664.26,992.42-665.83z M851.42-609.15c-0.07-0.54-0.06-1.13-0.23-1.66c-2-6.19-3.88-12.42-6.08-18.53
		c-2.29-6.36-5.62-12.17-10.5-16.95c-4.38-4.28-9.48-5.52-15.26-3.38c-2.08,0.77-4.17,1.66-6.07,2.8
		c-12.07,7.3-20.75,17.96-28.94,29.17C794.39-612.59,840.65-606.71,851.42-609.15z"/>
	<path class="st3" d="M1334.81-911.11c63.76,0.62,108.5,39.14,123.43,98.4c0.62,2.45,1.13,4.92,1.55,7.41
		c1.03,6.12-2,11.05-7.3,12.04c-5.76,1.07-10.27-2.39-11.49-8.76c-4.75-24.75-15.62-46.29-34.13-63.59
		c-15.65-14.63-34.66-22.32-55.66-25.13c-46.9-6.27-83.37,12-111.85,48.34c-4.05,5.17-7.51,10.89-10.64,16.67
		c-12.31,22.76-30.6,39.15-53.37,50.87c-5.4,2.78-10.72,1.27-13.34-3.53c-2.62-4.8-0.85-9.86,4.25-13.19
		c8.03-5.25,16.31-10.22,23.8-16.17c9.76-7.75,17.05-17.74,22.83-28.81C1236.42-881.7,1284.07-910.82,1334.81-911.11z"/>
	<path class="st3" d="M1337.02-951.1c34.49,0.43,68.62,10.05,98.9,31.89c18.41,13.28,33.17,29.83,44.21,49.66
		c0.98,1.77,1.89,3.65,2.42,5.59c1.32,4.85-0.85,9.21-5.22,11.02c-4.45,1.85-9.34,0.25-11.94-3.89
		c-3.61-5.75-6.92-11.73-10.89-17.22c-20.43-28.29-48.38-45.28-81.92-53.38c-50.4-12.18-95.37-0.88-135.25,31.91
		c-19.64,16.15-35.83,35.24-49.07,56.89c-2.97,4.86-6.5,6.63-11.04,5.62c-6.18-1.37-9.5-8.26-6.2-13.65
		c24.47-40.03,56.07-72.37,99.68-91.56C1291.02-947.15,1312.38-951.09,1337.02-951.1z"/>
	<path class="st3" d="M1335.15-992.52c46.28,1.22,86.6,15.27,121.55,43.99c3.07,2.52,5.95,5.3,8.78,8.1
		c4.91,4.86,5.28,10.46,1.1,14.58c-4.09,4.04-9.6,3.64-14.43-1.04c-24.34-23.6-53.71-37.38-86.69-43.67
		c-37.94-7.24-73.98-1.12-108.24,16.48c-19.31,9.92-36.98,22.13-52.87,36.92c-1.53,1.42-3.33,2.78-5.26,3.5
		c-4.04,1.5-8.52-0.41-10.81-4.16c-2.23-3.66-1.85-8.37,1.44-11.51c4.77-4.56,9.61-9.09,14.78-13.2
		c27.33-21.73,57.4-38.07,91.73-45.83C1309.44-991.37,1322.84-992.75,1335.15-992.52z"/>
	<path class="st3" d="M1504.5-774.12c-0.53,28.33-6.13,55.62-15.34,82.24c-1.87,5.4-7,7.97-12.05,6.27
		c-5.24-1.76-7.73-6.83-5.87-12.45c4.87-14.68,8.92-29.56,11.26-44.87c3.88-25.46,3.8-50.73-3.8-75.6c-0.91-2.96-2.11-5.84-3.3-8.71
		c-2.33-5.63-0.51-11.06,4.53-13.3c5.07-2.24,10.26-0.03,12.87,5.57c4.97,10.67,7.66,22.01,9.18,33.59
		C1503.16-792.32,1503.68-783.2,1504.5-774.12z"/>
	<path class="st3" d="M1464.48-750.99c-0.15,17.73-5.04,34.11-13.91,49.36c-2.81,4.83-7.48,6.57-12.12,4.72
		c-5.65-2.25-7.35-8.13-4.5-14.13c3.07-6.47,6.27-12.96,8.48-19.74c3.73-11.4,3.71-23.13,1.08-34.84c-0.3-1.33-0.62-2.66-0.76-4.01
		c-0.56-5.18,2.52-9.63,7.36-10.73c4.74-1.07,9.51,1.43,10.97,6.39c1.33,4.54,2.14,9.26,2.87,13.95
		C1464.41-757.05,1464.32-754,1464.48-750.99z"/>
</g>
</svg>
