<svg id="QualityIcon" xmlns="http://www.w3.org/2000/svg" width="213.201" height="213.201" viewBox="0 0 213.201 213.201">
  <g id="Group_864" data-name="Group 864">
    <path id="Ellipse_11" data-name="Ellipse 11" d="M106.6,0A106.6,106.6,0,1,1,0,106.6,106.6,106.6,0,0,1,106.6,0Z" fill="#72cb34"/>
  </g>
  <g id="Group_863" data-name="Group 863" transform="translate(-7.454 33)">
    <g id="Group_854" data-name="Group 854" transform="translate(74.999 13.129)">
      <g id="Group_853" data-name="Group 853">
        <path id="Path_1969" data-name="Path 1969" d="M167.623,52.373a39.812,39.812,0,0,0-49.393,59.948,2.2,2.2,0,0,0,3.478-2.706,35.406,35.406,0,0,1,43.928-53.31,2.2,2.2,0,1,0,1.987-3.932Z" transform="translate(-109.878 -48.082)" fill="#fff"/>
      </g>
    </g>
    <g id="Group_856" data-name="Group 856" transform="translate(89.534 33.806)">
      <g id="Group_855" data-name="Group 855">
        <path id="Path_1970" data-name="Path 1970" d="M223.911,125.017A2.2,2.2,0,0,0,219.978,127a35.406,35.406,0,0,1-53.313,43.921,2.2,2.2,0,1,0-2.706,3.477,39.812,39.812,0,0,0,59.952-49.385Z" transform="translate(-163.109 -123.806)" fill="#fff"/>
      </g>
    </g>
    <g id="Group_858" data-name="Group 858" transform="translate(137.465 22.555)">
      <g id="Group_857" data-name="Group 857" transform="translate(0)">
        <path id="Path_1971" data-name="Path 1971" d="M345.826,86.674c-.546-.618-1.119-1.228-1.7-1.813s-1.195-1.159-1.812-1.7a2.2,2.2,0,0,0-2.918,3.3c.55.486,1.094,1,1.615,1.518s1.032,1.065,1.518,1.615a2.2,2.2,0,0,0,3.3-2.918Z" transform="translate(-338.647 -82.605)" fill="#fff"/>
      </g>
    </g>
    <g id="Group_860" data-name="Group 860" transform="translate(61.898 0)">
      <g id="Group_859" data-name="Group 859" transform="translate(0)">
        <path id="Path_1972" data-name="Path 1972" d="M166.8,56.907a7.476,7.476,0,0,0,0-7.814l-2.9-4.753a3.1,3.1,0,0,1-.415-2.094l.864-5.489a7.473,7.473,0,0,0-3-7.236l-4.492-3.267a3.1,3.1,0,0,1-1.189-1.776l-1.308-5.406a7.474,7.474,0,0,0-5.528-5.529l-5.406-1.308a3.1,3.1,0,0,1-1.776-1.189l-3.268-4.493a7.472,7.472,0,0,0-7.235-3l-5.491.864A3.1,3.1,0,0,1,123.559,4L118.8,1.1a7.476,7.476,0,0,0-7.814,0L106.238,4a3.1,3.1,0,0,1-2.094.415l-5.489-.864a7.473,7.473,0,0,0-7.235,3l-3.267,4.492a3.1,3.1,0,0,1-1.777,1.189L80.969,13.54a7.475,7.475,0,0,0-5.529,5.528l-1.308,5.406a3.1,3.1,0,0,1-1.189,1.776l-4.493,3.268a7.473,7.473,0,0,0-3,7.235l.864,5.491a3.1,3.1,0,0,1-.415,2.094L63,49.093a7.477,7.477,0,0,0,0,7.813l2.9,4.753a3.1,3.1,0,0,1,.415,2.094l-.864,5.489a7.473,7.473,0,0,0,3,7.235l4.492,3.267a3.1,3.1,0,0,1,1.189,1.776l1.308,5.406a7.474,7.474,0,0,0,5.528,5.529L83.224,93,67.945,127.085a2.2,2.2,0,0,0,2.272,3.089l12.293-1.47,7.082,10.155a2.2,2.2,0,0,0,1.807.943c.069,0,.138,0,.207-.01a2.2,2.2,0,0,0,1.8-1.292l15.6-34.808,1.977,1.206a7.476,7.476,0,0,0,7.814,0l2.048-1.249L136.476,138.5a2.2,2.2,0,0,0,1.8,1.292c.069.007.138.01.207.01a2.2,2.2,0,0,0,1.807-.943l7.082-10.155,12.293,1.47a2.2,2.2,0,0,0,2.272-3.089l-15.286-34.1,2.173-.526a7.475,7.475,0,0,0,5.529-5.528l1.308-5.406a3.1,3.1,0,0,1,1.189-1.776l4.493-3.268a7.473,7.473,0,0,0,3-7.235l-.864-5.491a3.1,3.1,0,0,1,.415-2.094ZM90.981,133.147,85.369,125.1a2.2,2.2,0,0,0-2.069-.927l-9.742,1.165,13.92-31.052a3.081,3.081,0,0,1,.671.67l3.268,4.493a7.572,7.572,0,0,0,1.04,1.158l-7.327,16.344a2.2,2.2,0,1,0,4.02,1.8l7.3-16.286a7.54,7.54,0,0,0,2.2-.02l5.491-.864a3.093,3.093,0,0,1,.985.007Zm65.348-7.811-9.743-1.164a2.2,2.2,0,0,0-2.069.927l-5.612,8.048-14.152-31.57a3.1,3.1,0,0,1,.9.007l5.489.864a7.546,7.546,0,0,0,2.288.007l7.306,16.3a2.2,2.2,0,1,0,4.02-1.8L137.4,100.545a7.584,7.584,0,0,0,.975-1.1l3.267-4.492a3.093,3.093,0,0,1,.742-.722Zm6.7-70.724-2.9,4.754a7.514,7.514,0,0,0-1.006,5.073l.864,5.491a3.085,3.085,0,0,1-1.238,2.987l-4.493,3.268a7.513,7.513,0,0,0-2.879,4.3l-1.308,5.406a3.086,3.086,0,0,1-2.282,2.282l-5.406,1.308a7.512,7.512,0,0,0-4.3,2.88l-3.267,4.492a3.084,3.084,0,0,1-2.987,1.238l-5.489-.864a7.514,7.514,0,0,0-5.074,1.006l-4.753,2.9a3.087,3.087,0,0,1-3.225,0l-4.754-2.9a7.51,7.51,0,0,0-5.073-1.006l-5.491.864a3.085,3.085,0,0,1-2.987-1.238l-3.268-4.493a7.513,7.513,0,0,0-4.3-2.879L82,88.176a3.086,3.086,0,0,1-2.282-2.282l-1.308-5.406a7.512,7.512,0,0,0-2.88-4.3L71.04,72.915A3.085,3.085,0,0,1,69.8,69.929l.864-5.489a7.513,7.513,0,0,0-1.006-5.073l-2.9-4.754a3.086,3.086,0,0,1,0-3.225l2.9-4.754a7.513,7.513,0,0,0,1.006-5.073L69.8,36.069a3.085,3.085,0,0,1,1.238-2.987l4.493-3.268a7.513,7.513,0,0,0,2.879-4.3L79.722,20.1A3.086,3.086,0,0,1,82,17.822l5.406-1.308a7.511,7.511,0,0,0,4.3-2.88l3.267-4.492A3.084,3.084,0,0,1,97.969,7.9l5.489.864a7.51,7.51,0,0,0,5.074-1.006l4.753-2.9a3.087,3.087,0,0,1,3.225,0l4.754,2.9a7.51,7.51,0,0,0,5.073,1.006l5.491-.864a3.087,3.087,0,0,1,2.987,1.238l3.268,4.493a7.513,7.513,0,0,0,4.3,2.879l5.406,1.308a3.086,3.086,0,0,1,2.282,2.282l1.308,5.406a7.512,7.512,0,0,0,2.88,4.3l4.492,3.267a3.085,3.085,0,0,1,1.238,2.987l-.864,5.489a7.513,7.513,0,0,0,1.006,5.073l2.9,4.754A3.086,3.086,0,0,1,163.034,54.612Z" transform="translate(-61.898 0)" fill="#fff"/>
      </g>
    </g>
    <g id="Group_862" data-name="Group 862" transform="translate(88.917 27.414)">
      <g id="Group_861" data-name="Group 861" transform="translate(0)">
        <path id="Path_1973" data-name="Path 1973" d="M212.611,119.129a3.942,3.942,0,0,0-3.317-2.723l-13.257-1.572-5.592-12.122a3.981,3.981,0,0,0-7.23,0l-5.592,12.122-13.257,1.572a3.981,3.981,0,0,0-2.234,6.876l9.8,9.064-2.6,13.094a3.994,3.994,0,0,0,3.9,4.764,3.983,3.983,0,0,0,1.95-.514l11.649-6.52,11.649,6.52a3.981,3.981,0,0,0,5.849-4.249l-2.6-13.094,9.8-9.064A3.942,3.942,0,0,0,212.611,119.129Zm-14.781,10.819a2.2,2.2,0,0,0-.665,2.047l2.662,13.4-11.921-6.673a2.2,2.2,0,0,0-2.152,0l-11.921,6.673,2.662-13.4a2.2,2.2,0,0,0-.665-2.047l-10.03-9.276,13.567-1.609a2.2,2.2,0,0,0,1.741-1.265l5.722-12.405,5.722,12.405a2.2,2.2,0,0,0,1.741,1.265l13.566,1.609Z" transform="translate(-160.849 -100.398)" fill="#fff"/>
      </g>
    </g>
  </g>
</svg>
