<svg id="TimeIcon" xmlns="http://www.w3.org/2000/svg" width="497" height="497" viewBox="0 0 497 497">
  <path id="Ellipse_11" data-name="Ellipse 11" d="M297.638,52.282c137.243,0,248.5,111.257,248.5,248.5s-111.257,248.5-248.5,248.5-248.5-111.257-248.5-248.5S160.4,52.282,297.638,52.282Z" transform="translate(-49.138 -52.282)" fill="#72cb34"/>
  <g id="Group_839" data-name="Group 839" transform="translate(-49.138 -52.282)">
    <g id="Group_833" data-name="Group 833">
      <path id="Path_1904" data-name="Path 1904" d="M178.25,295.144H165.363a12.881,12.881,0,0,1-12.881-12.881V172.056a15.062,15.062,0,0,1,15.062-15.061h185.59a11.539,11.539,0,0,1,11.539,11.539v126.61H234.2" fill="none" stroke="#fff" stroke-linecap="round" stroke-miterlimit="10" stroke-width="4"/>
      <path id="Path_1905" data-name="Path 1905" d="M382.76,295.145H364.673V200.43h50.458l41.664,37.148v57.566H438.708" fill="none" stroke="#fff" stroke-linecap="round" stroke-miterlimit="10" stroke-width="4"/>
      <circle id="Ellipse_34" data-name="Ellipse 34" cx="27.974" cy="27.974" r="27.974" transform="translate(178.25 267.171)" fill="none" stroke="#fff" stroke-linecap="round" stroke-miterlimit="10" stroke-width="4"/>
      <circle id="Ellipse_35" data-name="Ellipse 35" cx="27.974" cy="27.974" r="27.974" transform="translate(382.76 267.171)" fill="none" stroke="#fff" stroke-linecap="round" stroke-miterlimit="10" stroke-width="4"/>
      <path id="Path_1906" data-name="Path 1906" d="M383.76,216.689v19.748l46.127.169-23.063-19.919Z" fill="none" stroke="#fff" stroke-linecap="round" stroke-miterlimit="10" stroke-width="4"/>
    </g>
    <line id="Line_22" data-name="Line 22" x2="96.895" transform="translate(434.955 309.133)" fill="none" stroke="#fff" stroke-linecap="round" stroke-miterlimit="10" stroke-width="4"/>
    <line id="Line_23" data-name="Line 23" x2="156.068" transform="translate(230.445 309.133)" fill="none" stroke="#fff" stroke-linecap="round" stroke-miterlimit="10" stroke-width="4"/>
    <line id="Line_24" data-name="Line 24" x2="120.403" transform="translate(61.599 309.133)" fill="none" stroke="#fff" stroke-linecap="round" stroke-miterlimit="10" stroke-width="4"/>
    <line id="Line_25" data-name="Line 25" x2="460.688" transform="translate(65.818 363.508)" fill="none" stroke="#fff" stroke-linecap="round" stroke-miterlimit="10" stroke-width="4"/>
    <line id="Line_26" data-name="Line 26" x2="55.687" transform="translate(78.474 335.923)" fill="none" stroke="#fff" stroke-linecap="round" stroke-miterlimit="10" stroke-width="4"/>
    <line id="Line_27" data-name="Line 27" x2="55.688" transform="translate(178.38 336.321)" fill="none" stroke="#fff" stroke-linecap="round" stroke-miterlimit="10" stroke-width="4"/>
    <line id="Line_28" data-name="Line 28" x2="55.688" transform="translate(382.89 336.321)" fill="none" stroke="#fff" stroke-linecap="round" stroke-miterlimit="10" stroke-width="4"/>
    <line id="Line_29" data-name="Line 29" x2="55.688" transform="translate(281.327 336.321)" fill="none" stroke="#fff" stroke-linecap="round" stroke-miterlimit="10" stroke-width="4"/>
    <line id="Line_30" data-name="Line 30" x2="46.033" transform="translate(483.402 336.321)" fill="none" stroke="#fff" stroke-linecap="round" stroke-miterlimit="10" stroke-width="4"/>
    <circle id="Ellipse_36" data-name="Ellipse 36" cx="11.153" cy="11.153" r="11.153" transform="translate(195.071 283.991)" fill="none" stroke="#fff" stroke-linecap="round" stroke-miterlimit="10" stroke-width="4"/>
    <circle id="Ellipse_37" data-name="Ellipse 37" cx="11.153" cy="11.153" r="11.153" transform="translate(399.581 283.991)" fill="none" stroke="#fff" stroke-linecap="round" stroke-miterlimit="10" stroke-width="4"/>
    <line id="Line_31" data-name="Line 31" x2="81.602" transform="translate(70.881 234.712)" fill="none" stroke="#fff" stroke-linecap="round" stroke-miterlimit="10" stroke-width="4"/>
    <line id="Line_32" data-name="Line 32" x2="72.641" transform="translate(456.795 237.578)" fill="none" stroke="#fff" stroke-linecap="round" stroke-miterlimit="10" stroke-width="4"/>
    <line id="Line_33" data-name="Line 33" y1="52.432" x2="53.758" transform="translate(98.724 182.28)" fill="none" stroke="#fff" stroke-linecap="round" stroke-miterlimit="10" stroke-width="4"/>
    <path id="Path_1907" data-name="Path 1907" d="M182,157,297.638,65.616,493.115,237.578" fill="none" stroke="#fff" stroke-linecap="round" stroke-miterlimit="10" stroke-width="4"/>
    <path id="Path_1908" data-name="Path 1908" d="M82.475,198.43l110.531-102.4,28.371,31.01" fill="none" stroke="#fff" stroke-linecap="round" stroke-linejoin="round" stroke-width="4"/>
    <path id="Path_1909" data-name="Path 1909" d="M404.823,159.667l28.131-24.909,88.176,82.328" fill="none" stroke="#fff" stroke-linecap="round" stroke-linejoin="round" stroke-width="4"/>
    <g id="Group_834" data-name="Group 834">
      <line id="Line_34" data-name="Line 34" x2="72.062" transform="translate(201.662 446.891)" fill="none" stroke="#fff" stroke-linecap="round" stroke-linejoin="round" stroke-width="4"/>
      <path id="Path_1910" data-name="Path 1910" d="M209.256,403.9l24.469,42.992L249.5,416.619" fill="none" stroke="#fff" stroke-linecap="round" stroke-linejoin="round" stroke-width="4"/>
      <line id="Line_35" data-name="Line 35" y1="24.905" transform="translate(233.724 421.985)" fill="none" stroke="#fff" stroke-linecap="round" stroke-linejoin="round" stroke-width="4"/>
    </g>
    <g id="Group_835" data-name="Group 835">
      <line id="Line_36" data-name="Line 36" x2="36.031" transform="translate(333.287 498.547)" fill="none" stroke="#fff" stroke-linecap="round" stroke-linejoin="round" stroke-width="4"/>
      <path id="Path_1911" data-name="Path 1911" d="M337.084,477.051l12.234,21.5,7.889-15.136" fill="none" stroke="#fff" stroke-linecap="round" stroke-linejoin="round" stroke-width="4"/>
      <line id="Line_37" data-name="Line 37" y1="12.453" transform="translate(349.318 486.094)" fill="none" stroke="#fff" stroke-linecap="round" stroke-linejoin="round" stroke-width="4"/>
    </g>
    <g id="Group_838" data-name="Group 838">
      <g id="Group_836" data-name="Group 836">
        <g id="Path_1912" data-name="Path 1912" fill="none" stroke-miterlimit="10">
          <path d="M214.767,201.295c.17,0,.341-.012.511-.012h135.25c.128,0,.257.007.384,0,.184-.011.26.068.249.249-.007.114,0,.228,0,.341q0,19.3,0,38.6c0,.676.08.588-.588.588H215.236c-.157,0-.313-.008-.469-.012.062-.076.118-.158.186-.228a25.464,25.464,0,0,0,3.085-3.8,28.01,28.01,0,0,0,4.411-20.761,27.546,27.546,0,0,0-4.7-11.357A34.317,34.317,0,0,0,214.767,201.295Z" stroke="none"/>
          <path d="M 219.0486145019531 203.2829895019531 C 219.1629028320313 203.4387969970703 219.2762451171875 203.5968933105469 219.3882751464844 203.7572631835938 C 222.0050354003906 207.5012359619141 223.6985473632813 211.5970153808594 224.4217224121094 215.9306030273438 C 225.7551574707031 223.9162750244141 224.1684265136719 231.383544921875 219.7054748535156 238.1253204345703 C 219.4959106445313 238.4417572021484 219.2791442871094 238.7544403076172 219.0555114746094 239.06298828125 C 262.4236755371094 239.06298828125 305.7901000976563 239.0629730224609 349.1591796875 239.0620269775391 C 349.1604919433594 229.8994903564453 349.1603088378906 220.7375335693359 349.1601257324219 211.5746002197266 L 349.1600036621094 203.2829895019531 L 219.0486145019531 203.2829895019531 M 350.9443969726563 201.2809906005859 C 351.1049499511719 201.2809906005859 351.1713256835938 201.3610076904297 351.1610107421875 201.5309906005859 C 351.1539916992188 201.6449890136719 351.1599731445313 201.7589874267578 351.1599731445313 201.8719940185547 C 351.1599731445313 214.739990234375 351.1610107421875 227.6069946289063 351.1589965820313 240.4739990234375 C 351.1589965820313 241.0103302001953 351.2093200683594 241.0657501220703 350.8965454101563 241.0657501220703 C 350.8150634765625 241.0657501220703 350.7090454101563 241.0619964599609 350.5710144042969 241.0619964599609 C 305.4590148925781 241.06298828125 260.3469848632813 241.06298828125 215.2359924316406 241.06298828125 C 215.0789794921875 241.06298828125 214.9230041503906 241.0549926757813 214.7669982910156 241.0509948730469 C 214.8289794921875 240.9749908447266 214.885009765625 240.8929901123047 214.9530029296875 240.822998046875 C 216.1029968261719 239.6540222167969 217.1340026855469 238.3860015869141 218.0379943847656 237.02099609375 C 222.2349853515625 230.6809997558594 223.7000122070313 223.7519989013672 222.4490051269531 216.2599945068359 C 221.7579956054688 212.1189880371094 220.1539916992188 208.343994140625 217.7489929199219 204.9029998779297 C 216.8519897460938 203.6189880371094 215.8280029296875 202.4429931640625 214.7669982910156 201.2949981689453 C 214.93701171875 201.2910003662109 215.1080017089844 201.2829895019531 215.2780151367188 201.2829895019531 C 260.3619995117188 201.2829895019531 305.4450073242188 201.2829895019531 350.5280151367188 201.2829895019531 C 350.6094665527344 201.2829895019531 350.6913146972656 201.2858276367188 350.7727966308594 201.2858276367188 C 350.8193664550781 201.2858276367188 350.8658142089844 201.2848968505859 350.9119873046875 201.2819976806641 C 350.9231872558594 201.2813262939453 350.9339904785156 201.2809906005859 350.9443969726563 201.2809906005859 Z" stroke="none" fill="#fff"/>
        </g>
      </g>
      <g id="Group_837" data-name="Group 837">
        <path id="Path_1913" data-name="Path 1913" d="M220.851,221.572a25.6,25.6,0,0,1-20.176,25.284,26.722,26.722,0,0,1-28.829-12.4,26.262,26.262,0,0,1,45.1-26.915A26.526,26.526,0,0,1,220.851,221.572Zm-9.6,17.43-.492-.254a8.785,8.785,0,0,1-3.046-2.54,10.511,10.511,0,0,1-.836-1.312.957.957,0,0,1,.137-1.124,1,1,0,0,1,1.022-.351,1.2,1.2,0,0,1,.791.67,7.031,7.031,0,0,0,3.535,3.078c.46.189.52.177.832-.2a23.5,23.5,0,0,0,5.554-14.96,24.538,24.538,0,0,0-1.227-8.188,24.161,24.161,0,0,0-46.8,11.627,23.336,23.336,0,0,0,4.425,10.112c.709.939,1.509,1.808,2.275,2.718.391-.265.715-.479,1.034-.7a55.868,55.868,0,0,0,12.3-11.41,34.9,34.9,0,0,0,2.961-4.465,1.038,1.038,0,0,1,1.372-.45,1.056,1.056,0,0,1,.506,1.379,6.033,6.033,0,0,1-.347.661,43.194,43.194,0,0,1-6.256,8.118,60.906,60.906,0,0,1-9.606,8.092c-.1.069-.2.143-.315.229l2.467,1.792c.1-.073.19-.133.273-.2,3.267-2.6,6.46-5.283,9.508-8.137a45.094,45.094,0,0,0,5.015-5.316,9.122,9.122,0,0,0,1.9-3.94,4.614,4.614,0,0,0-1.2-4.292,2.717,2.717,0,0,0-2.2-.853,4.578,4.578,0,0,0-3.057,1.477,18.113,18.113,0,0,0-2.589,3.409,29.923,29.923,0,0,1-2.768,3.967,36.958,36.958,0,0,1-9.306,7.536,1.03,1.03,0,0,1-1.448-.343,1.052,1.052,0,0,1,.384-1.465c.945-.613,1.894-1.219,2.825-1.853a27.2,27.2,0,0,0,8.65-9.156,16.864,16.864,0,0,1,2.387-3.2,7.167,7.167,0,0,1,3.4-2.239,5.009,5.009,0,0,1,5.492,1.51,6.684,6.684,0,0,1,1.518,5.828,10.823,10.823,0,0,1-2.457,5.061c-1.164,1.382-2.376,2.733-3.658,4.006a133.4,133.4,0,0,1-10.316,9.038c-.112.091-.22.187-.358.3l2.333,1.035c.637-.787,1.241-1.566,1.88-2.315a8.593,8.593,0,0,1,3.22-2.471,3.705,3.705,0,0,1,4.4,1,6.79,6.79,0,0,1,1.335,2.177c.346.921.634,1.864.924,2.805.077.251.181.322.434.273.754-.145,1.516-.254,2.268-.41.55-.114,1.09-.28,1.678-.435-.165-.155-.28-.253-.385-.362a15.639,15.639,0,0,1-4.455-11.5,1.039,1.039,0,0,1,1.093-1.11,1.065,1.065,0,0,1,1.009,1.162,21.453,21.453,0,0,0,.194,2.651,13.229,13.229,0,0,0,4.518,8.118.482.482,0,0,0,.582.1A24.728,24.728,0,0,0,208.5,241.2c.073-.05.138-.114.221-.184-.079-.055-.122-.088-.167-.117a12.754,12.754,0,0,1-4.9-5.756,21.081,21.081,0,0,1-1.637-8.682,38.077,38.077,0,0,1,.445-4.293,6.124,6.124,0,0,0-2.411-5.843,10.091,10.091,0,0,0-4.117-1.844,6.961,6.961,0,0,0-5.74,1.174,10.983,10.983,0,0,0-2.766,2.86,10.715,10.715,0,0,0-.907,1.536,16.5,16.5,0,0,1-3.9,5.192,26.85,26.85,0,0,1-5.547,3.947,1.026,1.026,0,0,1-1.436-.384,1.048,1.048,0,0,1,.351-1.4c.16-.111.338-.2.5-.3,1.021-.673,2.082-1.295,3.053-2.035a16.579,16.579,0,0,0,5.162-6.085,13.019,13.019,0,0,1,3.836-4.733,9,9,0,0,1,4.982-2.024,11.354,11.354,0,0,1,7.328,2.088,8.094,8.094,0,0,1,3.73,7.7c-.048.7-.167,1.4-.27,2.092a19.937,19.937,0,0,0,.091,6.149,14.49,14.49,0,0,0,2.062,5.668,10.081,10.081,0,0,0,3.769,3.5.594.594,0,0,0,.467.035A2.93,2.93,0,0,0,211.248,239Zm-15.723,6.321a1.031,1.031,0,0,0-.026-.184c-.223-.69-.432-1.385-.678-2.067a4.933,4.933,0,0,0-1.171-1.89,1.52,1.52,0,0,0-1.7-.377,3.962,3.962,0,0,0-.677.313,11.492,11.492,0,0,0-3.227,3.253A22.609,22.609,0,0,0,195.525,245.323Z" fill="#fff"/>
        <path id="Path_1914" data-name="Path 1914" d="M194.9,207.732c7.111.069,12.1,4.365,13.765,10.973.068.273.126.55.173.827a1.07,1.07,0,1,1-2.1.366,12.708,12.708,0,0,0-3.806-7.092,10.952,10.952,0,0,0-6.207-2.8c-5.231-.7-9.3,1.339-12.474,5.391a13.053,13.053,0,0,0-1.186,1.86,13.613,13.613,0,0,1-5.952,5.672,1.048,1.048,0,0,1-1.488-.394,1.077,1.077,0,0,1,.474-1.471c.9-.585,1.818-1.14,2.654-1.8a9.79,9.79,0,0,0,2.545-3.213A15.575,15.575,0,0,1,194.9,207.732Z" fill="#fff"/>
        <path id="Path_1915" data-name="Path 1915" d="M195.152,203.273a18.971,18.971,0,0,1,11.03,3.557,16.865,16.865,0,0,1,4.93,5.538,2.838,2.838,0,0,1,.27.623.994.994,0,0,1-.582,1.229,1.064,1.064,0,0,1-1.331-.434c-.4-.641-.772-1.307-1.215-1.92a15.26,15.26,0,0,0-9.135-5.953,16.506,16.506,0,0,0-15.083,3.559,25.014,25.014,0,0,0-5.472,6.343,1.08,1.08,0,0,1-1.231.627,1.026,1.026,0,0,1-.692-1.522,24.659,24.659,0,0,1,11.116-10.21A17.869,17.869,0,0,1,195.152,203.273Z" fill="#fff"/>
        <path id="Path_1916" data-name="Path 1916" d="M194.943,198.653a21.533,21.533,0,0,1,13.555,4.906c.342.281.664.59.979.9a1.066,1.066,0,0,1,.123,1.625,1.078,1.078,0,0,1-1.609-.116,18.508,18.508,0,0,0-9.668-4.87,18.266,18.266,0,0,0-12.071,1.838,26.085,26.085,0,0,0-5.9,4.117,1.841,1.841,0,0,1-.586.391,1.05,1.05,0,0,1-1.046-1.749c.533-.508,1.072-1.014,1.648-1.471a25.339,25.339,0,0,1,10.23-5.111A18.421,18.421,0,0,1,194.943,198.653Z" fill="#fff"/>
        <path id="Path_1917" data-name="Path 1917" d="M213.829,223.01a29.619,29.619,0,0,1-1.711,9.171,1.058,1.058,0,1,1-2-.689,30.664,30.664,0,0,0,1.255-5,18.788,18.788,0,0,0-.424-8.431c-.1-.33-.236-.651-.368-.971a1.075,1.075,0,0,1,.505-1.483,1.064,1.064,0,0,1,1.436.622,12.7,12.7,0,0,1,1.023,3.746C213.679,220.979,213.738,222,213.829,223.01Z" fill="#fff"/>
        <path id="Path_1918" data-name="Path 1918" d="M209.366,225.589a10.97,10.97,0,0,1-1.551,5.5,1.058,1.058,0,0,1-1.352.527,1.078,1.078,0,0,1-.5-1.576,19.016,19.016,0,0,0,.946-2.2,7.229,7.229,0,0,0,.121-3.885,4.045,4.045,0,0,1-.085-.447,1.07,1.07,0,0,1,.82-1.2,1.016,1.016,0,0,1,1.224.713,12.18,12.18,0,0,1,.32,1.555A9.6,9.6,0,0,1,209.366,225.589Z" fill="#fff"/>
      </g>
    </g>
    <path id="Path_1919" data-name="Path 1919" d="M251.9,223.136l2.139-6.907c.369-1.192.743-2.383,1.1-3.579.071-.236.158-.35.434-.346q1.749.025,3.5,0c.292,0,.364.092.338.368q-.381,4.069-.747,8.14c-.215,2.417-.414,4.836-.625,7.254-.072.834-.169,1.666-.231,2.5-.019.251-.127.309-.348.307-.754-.006-1.508-.013-2.262,0-.289.006-.327-.125-.307-.364.1-1.231.191-2.463.293-3.693.127-1.542.262-3.083.393-4.624q.12-1.4.237-2.8a.894.894,0,0,0-.047-.386q-.479,1.671-.958,3.341-1.172,4.091-2.338,8.184a.384.384,0,0,1-.441.341c-.583-.017-1.168-.031-1.749,0-.368.023-.465-.134-.486-.453-.053-.778-.121-1.556-.185-2.334q-.291-3.543-.584-7.087c-.041-.509-.069-1.02-.113-1.529-.011-.13.049-.288-.136-.408-.126.985-.25,1.948-.372,2.911q-.36,2.85-.719,5.7c-.122.957-.265,1.912-.372,2.87-.03.268-.142.327-.379.324-.755-.008-1.509-.011-2.263,0-.289,0-.346-.082-.309-.377.4-3.183.769-6.368,1.153-9.552.336-2.776.68-5.55,1.011-8.326.028-.232.113-.316.347-.314,1.238.008,2.477.014,3.715,0,.362-.006.334.235.353.447.1,1.032.181,2.064.268,3.1q.309,3.648.614,7.3Z" fill="#fff"/>
    <path id="Path_1920" data-name="Path 1920" d="M285.029,212.311a27.321,27.321,0,0,1,4.085.162,5.068,5.068,0,0,1,2.185.789,3.435,3.435,0,0,1,1.4,2.879,7.99,7.99,0,0,1-.623,3.449,4.042,4.042,0,0,1-1.919,2.089.515.515,0,0,0-.325.665q.761,3.6,1.5,7.2c.069.333.127.669.2,1,.051.243-.038.33-.286.328-1.124-.008-2.248-.011-3.372,0-.277,0-.356-.113-.4-.365-.264-1.638-.544-3.273-.817-4.909-.149-.9-.3-1.79-.438-2.687-.041-.265-.14-.381-.437-.376-.757.012-.774-.007-.854.722-.232,2.1-.448,4.2-.67,6.3-.034.325-.07.649-.094.974-.017.245-.124.339-.379.337q-1.686-.017-3.371,0c-.26,0-.355-.072-.325-.341.16-1.437.31-2.876.462-4.315q.281-2.645.558-5.289.28-2.665.563-5.331c.1-.931.22-1.861.277-2.795.025-.415.17-.518.562-.5C283.35,212.331,284.19,212.311,285.029,212.311Zm1.617,2.712,0,.019c-.184,0-.37.013-.553,0-.261-.024-.339.1-.363.341-.131,1.323-.277,2.646-.417,3.968-.091.861-.091.861.76.861.114,0,.228,0,.341,0a2.152,2.152,0,0,0,2.105-1.308,4.716,4.716,0,0,0,.327-2.375,1.4,1.4,0,0,0-1.395-1.436C287.185,215.046,286.914,215.044,286.646,215.023Z" fill="#fff"/>
    <path id="Path_1921" data-name="Path 1921" d="M311.621,221.449c-.155,1.463-.306,2.9-.459,4.337-.17,1.608-.344,3.216-.508,4.825-.021.207-.12.263-.3.263q-1.451,0-2.9,0c-.223,0-.3-.082-.273-.31q.413-3.765.811-7.533c.242-2.3.473-4.6.71-6.9.118-1.143.241-2.286.353-3.43.028-.289.133-.411.453-.4.682.028,1.366.027,2.048,0,.319-.012.441.109.533.4.85,2.663,1.714,5.321,2.574,7.98a.909.909,0,0,0,.219.392c.043-.353.091-.707.128-1.061q.334-3.132.663-6.264c.04-.381.084-.762.1-1.145.012-.214.085-.3.308-.295q1.408.015,2.817,0c.229,0,.283.069.258.3-.313,2.92-.612,5.841-.918,8.762-.313,2.992-.632,5.982-.938,8.975-.039.378-.132.578-.586.539a14.959,14.959,0,0,0-1.834-.006c-.3.012-.408-.1-.49-.384-.859-2.941-1.735-5.877-2.608-8.814C311.757,221.607,311.779,221.507,311.621,221.449Z" fill="#fff"/>
    <path id="Path_1922" data-name="Path 1922" d="M269.381,212.311c.969.041,2.148-.051,3.328.064a3.62,3.62,0,0,1,3.516,3.555,8.765,8.765,0,0,1-.537,3.976,4.635,4.635,0,0,1-4.165,2.971,16.843,16.843,0,0,1-2.429.07c-.289-.007-.408.089-.436.368-.115,1.186-.239,2.372-.361,3.558s-.254,2.4-.368,3.6c-.03.321-.162.416-.484.409q-1.6-.031-3.2,0c-.326.006-.423-.089-.386-.412.165-1.466.312-2.935.467-4.4q.277-2.625.557-5.249.288-2.709.574-5.418c.1-.9.2-1.806.272-2.711.023-.3.12-.386.411-.382C267.15,212.32,268.16,212.311,269.381,212.311Zm1.181,2.88c-.275,0-.5.01-.729,0s-.321.048-.346.3q-.213,2.177-.466,4.349c-.029.254.084.294.285.289a12.023,12.023,0,0,0,1.529-.054,1.461,1.461,0,0,0,1.258-1,6.739,6.739,0,0,0,.356-2.677,1.14,1.14,0,0,0-1-1.151A4.21,4.21,0,0,0,270.562,215.191Z" fill="#fff"/>
    <path id="Path_1923" data-name="Path 1923" d="M329.032,212.311c1.494,0,2.988.007,4.482-.006.3,0,.407.075.369.384-.1.8-.182,1.607-.256,2.412-.024.255-.186.245-.36.245-.7,0-1.395.015-2.091-.006-.324-.009-.434.091-.467.426-.2,2.061-.435,4.119-.652,6.178-.184,1.749-.361,3.5-.542,5.249-.116,1.129-.237,2.257-.347,3.387-.021.213-.105.3-.32.3-1.167-.006-2.333-.008-3.5,0-.252,0-.276-.122-.254-.32q.269-2.519.533-5.037.238-2.264.481-4.527c.184-1.749.354-3.5.56-5.247.041-.346-.047-.414-.364-.4-.682.019-1.366-.011-2.048.013-.334.011-.418-.106-.379-.42.094-.76.182-1.521.239-2.285.021-.287.132-.344.393-.343C326.017,212.316,327.525,212.311,329.032,212.311Z" fill="#fff"/>
    <path id="Path_1924" data-name="Path 1924" d="M238.181,212.311c.554,0,1.109.007,1.663,0,.239,0,.344.016.31.323-.313,2.89-.6,5.783-.9,8.674q-.467,4.485-.942,8.969c-.063.6-.067.6-.682.6-1.01,0-2.02-.01-3.029.006-.3.005-.4-.079-.37-.384.191-1.734.369-3.469.553-5.2q.277-2.624.556-5.246.287-2.706.573-5.414c.068-.649.149-1.3.19-1.947.018-.3.128-.389.416-.379C237.071,212.324,237.626,212.311,238.181,212.311Z" fill="#fff"/>
    <path id="Path_1925" data-name="Path 1925" d="M298.962,230.873c-.512,0-1.025-.02-1.535.007-.351.019-.48-.073-.437-.446.167-1.451.311-2.9.465-4.357q.279-2.645.559-5.288.285-2.687.569-5.372c.1-.917.2-1.833.278-2.751.023-.276.118-.362.389-.36q1.684.018,3.37,0c.273,0,.316.067.287.342-.338,3.144-.654,6.29-.981,9.436q-.423,4.083-.855,8.166c-.065.623-.065.623-.7.623Z" fill="#fff"/>
  </g>
</svg>
